<svg width="78" height="79" viewBox="0 0 78 79" fill="none" xmlns="http://www.w3.org/2000/svg">
<ellipse cx="39" cy="39.5" rx="39" ry="39.5" fill="#3ECCC2"/>
<mask id="mask0_80_96" style="mask-type:luminance" maskUnits="userSpaceOnUse" x="2" y="2" width="74" height="75">
<ellipse cx="39" cy="39.5" rx="36.4" ry="36.8667" fill="white"/>
</mask>
<g mask="url(#mask0_80_96)">
<path d="M38.9452 79C60.4843 79 77.9452 61.3153 77.9452 39.5C77.9452 17.6848 60.4843 0 38.9452 0C17.4061 0 -0.0548401 17.6848 -0.0548401 39.5C-0.0548401 61.3153 17.4061 79 38.9452 79Z" fill="#A879C6"/>
<path d="M76.4088 50.5073L61.2649 35.1636L57.1548 33.4392L38.1656 14.2031L12.6881 45.131L45.5662 78.4306C60.3548 75.8686 72.3007 64.8751 76.4088 50.5073Z" fill="#B6DD6A"/>
<path d="M60.2654 60.7126L59.8012 56.1448L61.7245 52.6518L58.6737 43.6062L49.8013 32.4619H44.6396C39.9333 32.4619 36.1181 36.326 36.1181 41.0927V56.0579C36.1181 60.8246 39.9333 64.6887 44.6396 64.6887H49.8013L55.8217 59.1005L60.2654 60.7126Z" fill="white"/>
<path d="M62.3528 60.545C63.1401 59.2375 63.5938 57.7015 63.5938 56.0581V41.0927C63.5938 36.326 59.7786 32.4619 55.0723 32.4619H49.8012V64.6887H55.0723C56.3573 64.6887 57.575 64.3989 58.6677 63.8829L63.8128 66.2134L62.3528 60.545Z" fill="white"/>
<path d="M26.6609 11.3794H21.4287C16.7223 11.3794 12.9072 15.2435 12.9072 20.0101V34.9754C12.9072 36.6188 13.361 38.1548 14.1482 39.4624L12.6881 45.1309L17.8332 42.8003C18.9258 43.3162 20.1435 43.606 21.4287 43.606H26.6609L34.3238 34.9518L34.2589 23.4383L26.6609 11.3794Z" fill="#141F1F"/>
<path d="M31.8613 11.3794H26.6609V43.6061H31.8613C36.5677 43.6061 40.3828 39.7421 40.3828 34.9754V20.0101C40.3828 15.2436 36.5677 11.3794 31.8613 11.3794Z" fill="#141F1F"/>
<path d="M28.3551 18.1831L24.9961 18.1859L18.1528 36.8026H22.4249L23.6892 33.3633H29.6169L30.8705 36.8026H35.1372L28.3551 18.1831ZM25.2117 29.2263L26.6676 25.263L28.1102 29.2263H25.2117Z" fill="white"/>
<path d="M28.3551 18.1831L26.6609 18.1845V25.2811L26.6676 25.263L28.1102 29.2263H26.6609V33.3633H29.6168L30.8705 36.8026H35.1372L28.3551 18.1831Z" fill="white"/>
<path d="M55.6084 49.9209L54.5493 51.9343C53.7058 53.5377 52.0673 54.5339 50.2735 54.5339H47.1029C45.6524 54.5339 44.4724 53.3387 44.4724 51.8698C44.4724 50.4007 45.6524 49.2057 47.1029 49.2057H51.7992V45.0816H46.8771C46.2062 45.0816 45.6605 44.5289 45.6605 43.8494C45.6605 43.1699 46.2062 42.6172 46.8771 42.6172H49.8012V38.4932H46.8771C43.9609 38.4932 41.5886 40.896 41.5886 43.8494C41.5886 44.9851 41.9404 46.0383 42.5379 46.9059C41.2242 48.146 40.4005 49.9119 40.4005 51.8698C40.4005 55.6127 43.4072 58.6579 47.1027 58.6579H50.2733C53.5749 58.6579 56.5902 56.8246 58.1426 53.8735L59.2017 51.8601L55.6084 49.9209Z" fill="#141F1F"/>
<path d="M55.6084 49.9209L54.5493 51.9343C53.7057 53.5378 52.0673 54.5339 50.2734 54.5339H49.8012V58.658H50.2734C53.575 58.658 56.5904 56.8246 58.1428 53.8735L59.2019 51.8601L55.6084 49.9209Z" fill="#141F1F"/>
<path d="M49.8012 45.0815H51.7992V49.2056H49.8012V45.0815Z" fill="#141F1F"/>
</g>
</svg>
