<svg width="28" height="28" viewBox="0 0 28 28" fill="none" xmlns="http://www.w3.org/2000/svg">
<path d="M13.8398 10.1865C15.5465 10.2665 15.9865 11.7198 16.0132 12.3998H18.3998C18.2932 9.75984 16.4132 8.1465 13.7998 8.1465C10.8532 8.1465 8.6665 9.99984 8.6665 14.1865C8.6665 16.7732 9.9065 19.8398 13.7865 19.8398C16.7465 19.8398 18.3332 17.6398 18.3732 15.9065H15.9865C15.9465 16.6932 15.3865 17.7465 13.8132 17.8265C12.0665 17.7732 11.3332 16.4132 11.3332 14.1865C11.3332 10.3332 13.0398 10.2132 13.8398 10.1865ZM13.9998 0.666504C6.63984 0.666504 0.666504 6.63984 0.666504 13.9998C0.666504 21.3598 6.63984 27.3332 13.9998 27.3332C21.3598 27.3332 27.3332 21.3598 27.3332 13.9998C27.3332 6.63984 21.3598 0.666504 13.9998 0.666504ZM13.9998 24.6665C8.11984 24.6665 3.33317 19.8798 3.33317 13.9998C3.33317 8.11984 8.11984 3.33317 13.9998 3.33317C19.8798 3.33317 24.6665 8.11984 24.6665 13.9998C24.6665 19.8798 19.8798 24.6665 13.9998 24.6665Z" fill="white"/>
</svg>
