<svg width="70" height="70" viewBox="0 0 70 70" fill="none" xmlns="http://www.w3.org/2000/svg">
<path d="M69.9677 34.9776C69.9677 39.2951 69.1861 43.4296 67.7539 47.2471C67.2521 48.5882 61.3894 46.6925 60.7328 47.9495C59.8802 49.5813 64.1827 54.3349 63.0926 55.8029C56.7189 64.3902 46.5012 69.9552 34.9839 69.9552C15.6635 69.9552 0 54.2959 0 34.9776C0 15.6607 15.6635 0 34.9839 0C43.6683 0 51.6135 3.16438 57.7302 8.40282C62.1797 12.2135 65.6617 17.1226 67.7539 22.7095C69.1861 26.5269 69.9677 30.6614 69.9677 34.9776Z" fill="#A879C6"/>
<path d="M24.187 55.5765H7.36603C4.65834 55.5765 2.46356 53.3819 2.46356 50.675V13.5549C2.46356 10.8478 4.65847 8.65332 7.36603 8.65332H22.6545C29.3258 8.65332 34.7337 14.0604 34.7337 20.7303L34.7339 41V63.3261C33.3319 58.8356 29.1401 55.5765 24.187 55.5765Z" fill="white" stroke="#3ECCC2" stroke-width="0.5"/>
<path d="M45.0814 55.5985C42.3088 55.7707 39.8144 56.9662 37.9693 58.811C36.7225 60.0576 35.7724 61.6009 35.2339 63.3258V20.7297C35.2339 14.8013 39.5073 9.86963 45.1424 8.84831L45.1427 8.84825C45.8467 8.71978 46.571 8.65283 47.313 8.65283H62.602C65.3091 8.65283 67.5039 10.8473 67.5039 13.5538V47.2018C66.3738 50.21 64.8356 53.0187 62.959 55.5631C62.8409 55.5716 62.7217 55.5761 62.602 55.5761H45.7811C45.5466 55.5761 45.3129 55.5831 45.0814 55.5985ZM45.0814 55.5985C45.0817 55.5985 45.082 55.5985 45.0823 55.5985L45.0978 55.848L45.0812 55.5986C45.0812 55.5986 45.0813 55.5985 45.0814 55.5985Z" fill="white" stroke="#3ECCC2" stroke-width="0.5"/>
<path d="M41.1434 24.1651C41.1318 22.9649 40.1552 22 38.9574 22C38.9503 22 38.9431 22 38.936 22.0001C37.7283 22.0118 36.7589 22.9999 36.7707 24.2071L36.8548 32.9181L29.9857 22.973C29.4419 22.1857 28.4494 21.8436 27.5357 22.128C26.6222 22.4128 26 23.2584 26 24.2151V39.761C26 40.9684 26.9789 41.9471 28.1865 41.9471C29.3941 41.9471 30.373 40.9684 30.373 39.761V31.2278L36.9009 40.6788C37.5339 41.5933 38.5932 41.9811 39.6005 41.6668C40.6263 41.3466 41.2889 40.3926 41.2889 39.2362C41.2889 39.2291 41.2889 39.222 41.2888 39.2151L41.1434 24.1651Z" fill="#B6DD6A"/>
<path d="M20.2219 26.6198C21.4295 26.6198 22.4084 25.6411 22.4084 24.4337C22.4084 23.2262 21.4295 22.2476 20.2219 22.2476H13.7179C12.5103 22.2476 11.5314 23.2262 11.5314 24.4337V39.8664C11.5314 41.0738 12.5103 42.0525 13.7179 42.0525H20.2219C21.4295 42.0525 22.4084 41.0738 22.4084 39.8664C22.4084 38.659 21.4295 37.6803 20.2219 37.6803H15.9044V34.3361H19.7424C20.95 34.3361 21.9289 33.3575 21.9289 32.15C21.9289 30.9426 20.95 29.9639 19.7424 29.9639H15.9044V26.6196L20.2219 26.6198Z" fill="#B6DD6A"/>
<path d="M58.9829 29.964H54.3228C53.1152 29.964 52.1364 30.9427 52.1364 32.1501C52.1364 33.3575 53.1152 34.3362 54.3228 34.3362H56.5132C55.9899 36.2164 54.6955 37.7514 52.2591 37.7514C49.17 37.7514 46.6567 35.2386 46.6567 32.1501C46.6567 29.0615 49.17 26.5486 52.2591 26.5486C53.382 26.5486 54.4646 26.879 55.3899 27.5039C56.3906 28.18 57.7498 27.9167 58.4257 26.9163C59.1017 25.9159 58.8385 24.5568 57.8379 23.881C56.1868 22.7658 54.2578 22.1763 52.2591 22.1763C46.7587 22.1763 42.2838 26.6504 42.2838 32.1499C42.2838 37.6493 46.7587 42.1235 52.2591 42.1235C57.5053 42.1235 61.1693 38.0221 61.1693 32.1499C61.1694 30.9428 60.1906 29.964 58.9829 29.964Z" fill="#B6DD6A"/>
</svg>
