<svg width="501" height="507" viewBox="0 0 501 507" fill="none" xmlns="http://www.w3.org/2000/svg">
<mask id="mask0_7_1333" style="mask-type:alpha" maskUnits="userSpaceOnUse" x="0" y="-679" width="1215" height="1186">
<path d="M777.925 227.94C820.933 127.591 917.252 14.8776 1008.63 -42.3636C1166.27 -141.109 1215.76 -351.794 1119.16 -512.941C1022.56 -674.088 816.465 -724.674 658.826 -625.928C637.326 -612.46 610.273 -610.741 587.59 -622.001C466.993 -681.868 319.992 -679.554 197.201 -602.637C5.74677 -482.709 -54.353 -226.83 62.9645 -31.1155C101.645 33.4132 128.825 107.06 148.269 180.083C156.426 210.714 168.922 240.69 185.966 269.123C282.562 430.27 488.661 480.856 646.3 382.11C706.846 344.183 751.438 289.744 777.925 227.94Z" fill="#D9D9D9"/>
<path d="M792.271 251.872C835.278 151.523 931.598 38.8093 1022.98 -18.4318C1180.62 -117.178 1230.1 -327.863 1133.51 -489.009C1036.91 -650.156 830.81 -700.742 673.171 -601.996C651.672 -588.529 624.618 -586.809 601.936 -598.069C481.338 -657.936 334.338 -655.622 211.546 -578.705C20.0921 -458.777 -40.0077 -202.898 77.3098 -7.18372C115.99 57.3449 143.17 130.992 162.615 204.015C170.771 234.646 183.267 264.621 200.311 293.055C296.908 454.202 503.006 504.788 660.645 406.042C721.191 368.115 765.783 313.675 792.271 251.872Z" fill="#D9D9D9"/>
<path d="M806.616 275.803C849.623 175.455 945.943 62.741 1037.32 5.49982C1194.96 -93.2462 1244.45 -303.931 1147.85 -465.078C1051.25 -626.225 845.156 -676.81 687.517 -578.064C666.017 -564.597 638.963 -562.878 616.281 -574.138C495.684 -634.005 348.683 -631.691 225.892 -554.774C34.4375 -434.846 -25.6622 -178.967 91.6553 16.7479C130.336 81.2766 157.515 154.924 176.96 227.947C185.117 258.577 197.613 288.553 214.656 316.987C311.253 478.133 517.352 528.719 674.99 429.973C735.537 392.047 780.128 337.607 806.616 275.803Z" fill="#D9D9D9"/>
<path d="M820.962 299.735C863.969 199.386 960.289 86.6725 1051.67 29.4314C1209.31 -69.3146 1258.79 -279.999 1162.2 -441.146C1065.6 -602.293 859.501 -652.879 701.862 -554.133C680.362 -540.665 653.309 -538.946 630.626 -550.206C510.029 -610.073 363.028 -607.759 240.237 -530.842C48.783 -410.914 -11.3168 -155.035 106.001 40.6796C144.681 105.208 171.861 178.855 191.306 251.878C199.462 282.509 211.958 312.485 229.002 340.918C325.598 502.065 531.697 552.651 689.336 453.905C749.882 415.978 794.474 361.539 820.962 299.735Z" fill="#D9D9D9"/>
<path d="M777.925 227.94C820.933 127.591 917.252 14.8776 1008.63 -42.3636C1166.27 -141.109 1215.76 -351.794 1119.16 -512.941C1022.56 -674.088 816.465 -724.674 658.826 -625.928C637.326 -612.46 610.273 -610.741 587.59 -622.001C466.993 -681.868 319.992 -679.554 197.201 -602.637C5.74677 -482.709 -54.353 -226.83 62.9645 -31.1155C101.645 33.4132 128.825 107.06 148.269 180.083C156.426 210.714 168.922 240.69 185.966 269.123C282.562 430.27 488.661 480.856 646.3 382.11C706.846 344.183 751.438 289.744 777.925 227.94Z" stroke="url(#paint0_linear_7_1333)" stroke-width="5"/>
<path d="M792.271 251.872C835.278 151.523 931.598 38.8093 1022.98 -18.4318C1180.62 -117.178 1230.1 -327.863 1133.51 -489.009C1036.91 -650.156 830.81 -700.742 673.171 -601.996C651.672 -588.529 624.618 -586.809 601.936 -598.069C481.338 -657.936 334.338 -655.622 211.546 -578.705C20.0921 -458.777 -40.0077 -202.898 77.3098 -7.18372C115.99 57.3449 143.17 130.992 162.615 204.015C170.771 234.646 183.267 264.621 200.311 293.055C296.908 454.202 503.006 504.788 660.645 406.042C721.191 368.115 765.783 313.675 792.271 251.872Z" stroke="url(#paint1_linear_7_1333)" stroke-width="5"/>
<path d="M806.616 275.803C849.623 175.455 945.943 62.741 1037.32 5.49982C1194.96 -93.2462 1244.45 -303.931 1147.85 -465.078C1051.25 -626.225 845.156 -676.81 687.517 -578.064C666.017 -564.597 638.963 -562.878 616.281 -574.138C495.684 -634.005 348.683 -631.691 225.892 -554.774C34.4375 -434.846 -25.6622 -178.967 91.6553 16.7479C130.336 81.2766 157.515 154.924 176.96 227.947C185.117 258.577 197.613 288.553 214.656 316.987C311.253 478.133 517.352 528.719 674.99 429.973C735.537 392.047 780.128 337.607 806.616 275.803Z" stroke="url(#paint2_linear_7_1333)" stroke-width="5"/>
<path d="M820.962 299.735C863.969 199.386 960.289 86.6725 1051.67 29.4314C1209.31 -69.3146 1258.79 -279.999 1162.2 -441.146C1065.6 -602.293 859.501 -652.879 701.862 -554.133C680.362 -540.665 653.309 -538.946 630.626 -550.206C510.029 -610.073 363.028 -607.759 240.237 -530.842C48.783 -410.914 -11.3168 -155.035 106.001 40.6796C144.681 105.208 171.861 178.855 191.306 251.878C199.462 282.509 211.958 312.485 229.002 340.918C325.598 502.065 531.697 552.651 689.336 453.905C749.882 415.978 794.474 361.539 820.962 299.735Z" stroke="url(#paint3_linear_7_1333)" stroke-width="5"/>
</mask>
<g mask="url(#mask0_7_1333)">
<rect x="-30" y="-866.5" width="1726" height="1432" fill="url(#paint4_linear_7_1333)"/>
</g>
<path d="M777.925 227.94C820.933 127.591 917.252 14.8775 1008.63 -42.3636C1166.27 -141.11 1215.76 -351.794 1119.16 -512.941C1022.56 -674.088 816.465 -724.674 658.826 -625.928C637.326 -612.46 610.273 -610.741 587.59 -622.001C466.993 -681.868 319.992 -679.554 197.201 -602.637C5.74677 -482.709 -54.353 -226.83 62.9645 -31.1155C101.645 33.4132 128.825 107.06 148.269 180.083C156.426 210.714 168.922 240.69 185.966 269.123C282.562 430.27 488.661 480.856 646.3 382.11C706.846 344.183 751.438 289.744 777.925 227.94Z" stroke="url(#paint5_linear_7_1333)" stroke-width="3"/>
<path d="M792.271 251.872C835.278 151.523 931.598 38.8093 1022.98 -18.4318C1180.62 -117.178 1230.1 -327.863 1133.51 -489.009C1036.91 -650.156 830.81 -700.742 673.171 -601.996C651.672 -588.529 624.618 -586.809 601.936 -598.069C481.338 -657.936 334.338 -655.622 211.546 -578.705C20.0921 -458.777 -40.0077 -202.898 77.3098 -7.18374C115.99 57.3449 143.17 130.992 162.615 204.015C170.771 234.646 183.267 264.621 200.311 293.055C296.907 454.202 503.006 504.788 660.645 406.042C721.191 368.115 765.783 313.675 792.271 251.872Z" stroke="url(#paint6_linear_7_1333)" stroke-width="3"/>
<path d="M806.616 275.803C849.623 175.455 945.943 62.7409 1037.32 5.4998C1194.96 -93.2462 1244.45 -303.931 1147.85 -465.078C1051.25 -626.225 845.156 -676.81 687.517 -578.064C666.017 -564.597 638.963 -562.878 616.281 -574.138C495.684 -634.005 348.683 -631.691 225.892 -554.774C34.4375 -434.846 -25.6622 -178.967 91.6553 16.7479C130.336 81.2766 157.515 154.924 176.96 227.947C185.117 258.577 197.613 288.553 214.657 316.987C311.253 478.133 517.352 528.719 674.99 429.973C735.537 392.047 780.128 337.607 806.616 275.803Z" stroke="url(#paint7_linear_7_1333)" stroke-width="3"/>
<path d="M820.962 299.735C863.969 199.386 960.289 86.6725 1051.67 29.4314C1209.31 -69.3146 1258.79 -279.999 1162.2 -441.146C1065.6 -602.293 859.501 -652.879 701.862 -554.133C680.362 -540.665 653.309 -538.946 630.626 -550.206C510.029 -610.073 363.028 -607.759 240.237 -530.842C48.783 -410.914 -11.3168 -155.035 106.001 40.6795C144.681 105.208 171.861 178.855 191.306 251.878C199.462 282.509 211.958 312.485 229.002 340.918C325.598 502.065 531.697 552.651 689.336 453.905C749.882 415.978 794.474 361.539 820.962 299.735Z" stroke="url(#paint8_linear_7_1333)" stroke-width="3"/>
<defs>
<linearGradient id="paint0_linear_7_1333" x1="607.285" y1="-676.4" x2="607.285" y2="504.377" gradientUnits="userSpaceOnUse">
<stop stop-color="#AFD663"/>
<stop offset="1" stop-color="#A879C6"/>
</linearGradient>
<linearGradient id="paint1_linear_7_1333" x1="607.285" y1="-676.4" x2="607.285" y2="504.377" gradientUnits="userSpaceOnUse">
<stop stop-color="#AFD663"/>
<stop offset="1" stop-color="#A879C6"/>
</linearGradient>
<linearGradient id="paint2_linear_7_1333" x1="607.285" y1="-676.4" x2="607.285" y2="504.377" gradientUnits="userSpaceOnUse">
<stop stop-color="#AFD663"/>
<stop offset="1" stop-color="#A879C6"/>
</linearGradient>
<linearGradient id="paint3_linear_7_1333" x1="607.285" y1="-676.4" x2="607.285" y2="504.377" gradientUnits="userSpaceOnUse">
<stop stop-color="#AFD663"/>
<stop offset="1" stop-color="#A879C6"/>
</linearGradient>
<linearGradient id="paint4_linear_7_1333" x1="423.07" y1="441.376" x2="1536.34" y2="-440.556" gradientUnits="userSpaceOnUse">
<stop stop-color="#D8B9EC"/>
<stop offset="0.345" stop-color="#B990D4"/>
<stop offset="0.76" stop-color="#A879C6"/>
</linearGradient>
<linearGradient id="paint5_linear_7_1333" x1="-64.5" y1="-488.372" x2="874.733" y2="483.726" gradientUnits="userSpaceOnUse">
<stop stop-color="#AFD663"/>
<stop offset="1" stop-color="#A879C6"/>
</linearGradient>
<linearGradient id="paint6_linear_7_1333" x1="-64.5" y1="-488.372" x2="874.733" y2="483.726" gradientUnits="userSpaceOnUse">
<stop stop-color="#AFD663"/>
<stop offset="1" stop-color="#A879C6"/>
</linearGradient>
<linearGradient id="paint7_linear_7_1333" x1="-64.5" y1="-488.372" x2="874.733" y2="483.726" gradientUnits="userSpaceOnUse">
<stop stop-color="#AFD663"/>
<stop offset="1" stop-color="#A879C6"/>
</linearGradient>
<linearGradient id="paint8_linear_7_1333" x1="-64.5" y1="-488.372" x2="874.733" y2="483.726" gradientUnits="userSpaceOnUse">
<stop stop-color="#AFD663"/>
<stop offset="1" stop-color="#A879C6"/>
</linearGradient>
</defs>
</svg>
