<svg width="111" height="111" viewBox="0 0 111 111" fill="none" xmlns="http://www.w3.org/2000/svg">
<path fill-rule="evenodd" clip-rule="evenodd" d="M18.1787 49.6069C19.2634 49.6069 20.143 48.7276 20.143 47.6426V24.0712C20.143 22.9865 19.2636 22.1069 18.1787 22.1069C17.0939 22.1069 16.2144 22.9863 16.2144 24.0712V47.6426C16.2144 48.7276 17.0937 49.6069 18.1787 49.6069Z" fill="white"/>
<path fill-rule="evenodd" clip-rule="evenodd" d="M18.1786 90.8569H26.0356V110.5H18.1786V90.8569Z" fill="white"/>
<path fill-rule="evenodd" clip-rule="evenodd" d="M4.42863 33.8931H2.46432C1.37957 33.8931 0.5 34.7724 0.5 35.8574C0.5 36.9421 1.37936 37.8217 2.46432 37.8217H4.42863V33.8931Z" fill="white"/>
<path fill-rule="evenodd" clip-rule="evenodd" d="M10.3214 41.75C11.4061 41.75 12.2857 40.8707 12.2857 39.7857V31.9287C12.2857 30.8439 11.4063 29.9644 10.3214 29.9644C9.23641 29.9644 8.35706 30.8437 8.35706 31.9287V39.7857C8.35706 40.8707 9.23663 41.75 10.3214 41.75Z" fill="white"/>
<path fill-rule="evenodd" clip-rule="evenodd" d="M100.679 41.75C101.763 41.75 102.643 40.8707 102.643 39.7857V31.9287C102.643 30.8439 101.764 29.9644 100.679 29.9644C99.5937 29.9644 98.7144 30.8437 98.7144 31.9287V39.7857C98.7144 40.8707 99.5937 41.75 100.679 41.75Z" fill="white"/>
<path fill-rule="evenodd" clip-rule="evenodd" d="M92.8212 49.6069C93.906 49.6069 94.7856 48.7276 94.7856 47.6426V24.0712C94.7856 22.9865 93.9062 22.1069 92.8212 22.1069C91.7365 22.1069 90.8569 22.9863 90.8569 24.0712V47.6426C90.8569 48.7276 91.7365 49.6069 92.8212 49.6069Z" fill="white"/>
<path d="M79.0714 4.42863C79.0714 2.25892 77.3125 0.5 75.143 0.5H35.8571C33.6874 0.5 31.9285 2.25892 31.9285 4.42863V29.9643H79.0714V4.42863ZM51.5714 22.107C52.6562 22.107 53.5357 22.9864 53.5357 24.0713C53.5357 25.1561 52.6564 26.0357 51.5714 26.0357H41.7501C40.6653 26.0357 39.7857 25.1563 39.7857 24.0713C39.7857 19.7951 43.0013 17.6913 45.5844 16.0001C48.0789 14.3677 49.6073 13.2677 49.6073 11.2132C49.7079 9.74987 48.6139 8.47714 47.1519 8.35704C46.0648 8.41247 45.1366 9.16077 44.8518 10.2114C44.6657 10.9143 44.1065 11.457 43.3981 11.6218C42.6898 11.7866 41.9484 11.5466 41.471 10.9981C40.9936 10.4496 40.8584 9.68198 41.1195 9.00329C41.9219 6.32913 44.3602 4.47976 47.1519 4.42841C50.7847 4.54701 53.6382 7.57974 53.5357 11.213C53.5357 15.4911 50.3202 17.5949 47.7371 19.2861C46.4334 20.0082 45.2741 20.9643 44.3172 22.1068L51.5714 22.107ZM71.2144 22.107H69.2501V24.0713C69.2501 25.1561 68.3707 26.0357 67.2857 26.0357C66.201 26.0357 65.3214 25.1563 65.3214 24.0713V22.107H57.4644C56.729 22.1064 56.0556 21.695 55.7192 21.041C55.383 20.387 55.4401 19.6 55.8672 19.0015L65.6886 5.25148C66.1853 4.55796 67.0726 4.26427 67.8849 4.52466C68.6973 4.78505 69.2488 5.5398 69.2498 6.39273V18.1784H71.2142C72.2989 18.1784 73.1785 19.0577 73.1785 20.1427C73.1785 21.2277 72.2991 22.107 71.2144 22.107Z" fill="white"/>
<path fill-rule="evenodd" clip-rule="evenodd" d="M86.9286 33.8931H81.0356H29.9642H24.0713V37.8215H86.9286V33.8931Z" fill="white"/>
<path fill-rule="evenodd" clip-rule="evenodd" d="M65.3213 18.1788V12.5215L61.2808 18.1768L65.3213 18.1788Z" fill="white"/>
<path fill-rule="evenodd" clip-rule="evenodd" d="M61.393 73.1787H51.5716C50.4869 73.1787 49.6073 74.0581 49.6073 75.143V84.9644H61.393V73.1787Z" fill="white"/>
<path fill-rule="evenodd" clip-rule="evenodd" d="M104.607 53.5356H6.39291C5.30816 53.5356 4.42859 54.415 4.42859 55.5V59.4286C4.42859 60.5133 5.30795 61.3929 6.39291 61.3929H104.607C105.692 61.3929 106.572 60.5136 106.572 59.4286V55.5C106.571 54.4152 105.692 53.5356 104.607 53.5356Z" fill="white"/>
<path fill-rule="evenodd" clip-rule="evenodd" d="M51.5714 100.679H61.3927V88.8931H49.6071V98.7144C49.6071 99.7992 50.4866 100.679 51.5714 100.679Z" fill="white"/>
<path d="M10.3214 108.536C10.3214 109.62 11.2008 110.5 12.2857 110.5H14.25V90.857C14.25 88.6872 16.009 86.9283 18.1787 86.9283H37.8216C39.9913 86.9283 41.7503 88.6872 41.7503 90.857V110.5H98.7146C99.7993 110.5 100.679 109.621 100.679 108.536V65.3213H10.3214V108.536ZM45.6787 75.1429C45.6787 71.8884 48.317 69.2499 51.5716 69.2499H90.8573C94.1118 69.2499 96.75 71.8882 96.75 75.1429V98.7142C96.75 101.969 94.1118 104.607 90.8571 104.607H51.5714C48.317 104.607 45.6785 101.969 45.6785 98.7142L45.6787 75.1429Z" fill="white"/>
<path fill-rule="evenodd" clip-rule="evenodd" d="M108.536 33.8931H106.572V37.8217H108.536C109.621 37.8217 110.5 36.9423 110.5 35.8574C110.5 34.7724 109.621 33.8931 108.536 33.8931Z" fill="white"/>
<path fill-rule="evenodd" clip-rule="evenodd" d="M92.8213 75.143C92.8213 74.0583 91.942 73.1787 90.857 73.1787H81.0356V84.9644H92.8213V75.143Z" fill="white"/>
<path fill-rule="evenodd" clip-rule="evenodd" d="M92.8213 98.7144V88.8931H81.0356V100.679H90.857C91.942 100.679 92.8213 99.7992 92.8213 98.7144Z" fill="white"/>
<path fill-rule="evenodd" clip-rule="evenodd" d="M65.3214 73.1787H77.1071V84.9644H65.3214V73.1787Z" fill="white"/>
<path fill-rule="evenodd" clip-rule="evenodd" d="M65.3214 88.8931H77.1071V100.679H65.3214V88.8931Z" fill="white"/>
<path fill-rule="evenodd" clip-rule="evenodd" d="M29.9642 90.8569H37.8213V110.5H29.9642V90.8569Z" fill="white"/>
</svg>
