<svg width="23" height="23" viewBox="0 0 23 23" fill="none" xmlns="http://www.w3.org/2000/svg">
<path fill-rule="evenodd" clip-rule="evenodd" d="M0.25 11.5C0.25 7.00608 0.25 4.75911 1.32086 3.14069C1.79906 2.41799 2.41799 1.79906 3.14069 1.32086C4.75911 0.25 7.00608 0.25 11.5 0.25C15.9939 0.25 18.2409 0.25 19.8593 1.32086C20.582 1.79906 21.2009 2.41799 21.6791 3.14069C22.75 4.75911 22.75 7.00608 22.75 11.5C22.75 15.9939 22.75 18.2409 21.6791 19.8593C21.2009 20.582 20.582 21.2009 19.8593 21.6791C18.2409 22.75 15.9939 22.75 11.5 22.75C7.00608 22.75 4.75911 22.75 3.14069 21.6791C2.41799 21.2009 1.79906 20.582 1.32086 19.8593C0.25 18.2409 0.25 15.9939 0.25 11.5ZM17.3241 11.5003C17.3241 14.7169 14.7164 17.3245 11.4998 17.3245C8.28315 17.3245 5.67554 14.7169 5.67554 11.5003C5.67554 8.28363 8.28315 5.67602 11.4998 5.67602C14.7164 5.67602 17.3241 8.28363 17.3241 11.5003ZM11.4998 15.354C13.6282 15.354 15.3536 13.6287 15.3536 11.5003C15.3536 9.37191 13.6282 7.64653 11.4998 7.64653C9.37143 7.64653 7.64604 9.37191 7.64604 11.5003C7.64604 13.6287 9.37143 15.354 11.4998 15.354ZM17.5541 6.75194C18.3099 6.75194 18.9226 6.13922 18.9226 5.38341C18.9226 4.62759 18.3099 4.01488 17.5541 4.01488C16.7983 4.01488 16.1856 4.62759 16.1856 5.38341C16.1856 6.13922 16.7983 6.75194 17.5541 6.75194Z" fill="#A879C6"/>
</svg>
