<svg width="23" height="23" viewBox="0 0 23 23" fill="none" xmlns="http://www.w3.org/2000/svg">
<path d="M0.25 3.27482C0.25 2.55331 0.503386 1.95807 1.01014 1.48911C1.51688 1.02013 2.17568 0.785645 2.98649 0.785645C3.78283 0.785645 4.42712 1.01651 4.9194 1.47829C5.42615 1.95448 5.67954 2.57495 5.67954 3.33976C5.67954 4.0324 5.4334 4.60958 4.94112 5.07136C4.43437 5.54755 3.76834 5.78564 2.94305 5.78564H2.92133C2.12499 5.78564 1.4807 5.54755 0.988417 5.07136C0.496132 4.59517 0.25 3.99631 0.25 3.27482ZM0.532336 22.2142V7.75534H5.35376V22.2142H0.532336ZM8.0251 22.2142H12.8465V14.1406C12.8465 13.6356 12.9044 13.2459 13.0203 12.9718C13.223 12.4812 13.5306 12.0663 13.9433 11.7272C14.3559 11.3881 14.8735 11.2185 15.4961 11.2185C17.1178 11.2185 17.9286 12.308 17.9286 14.4869V22.2142H22.75V13.9242C22.75 11.7885 22.2432 10.1688 21.2297 9.06486C20.2162 7.96097 18.8769 7.40902 17.2119 7.40902C15.3441 7.40902 13.889 8.20989 12.8465 9.81162V9.85491H12.8248L12.8465 9.81162V7.75534H8.0251C8.05405 8.21709 8.06853 9.65287 8.06853 12.0627C8.06853 14.4725 8.05405 17.8563 8.0251 22.2142Z" fill="#A879C6"/>
</svg>
