<svg width="60" height="60" viewBox="0 0 60 60" fill="none" xmlns="http://www.w3.org/2000/svg">
<path fill-rule="evenodd" clip-rule="evenodd" d="M15.0765 56.1791C14.7621 56.0026 14.4511 55.8206 14.1438 55.6332C14.1933 55.5076 14.251 55.3818 14.3167 55.2558C14.8931 54.1506 16.0486 53.0986 17.4554 52.1673C17.537 52.1133 17.6191 52.0599 17.7017 52.0071C16.2424 53.1537 15.0891 54.5681 15.0765 56.1791ZM28.7041 58.6616C28.6849 59.1256 28.6588 59.566 28.6282 59.9798C28.9966 59.9932 29.3668 60 29.7385 60C30.1102 60 30.4804 59.9932 30.8488 59.9798C30.8182 59.566 30.7921 59.1256 30.773 58.6616C30.643 55.5062 30.8353 51.2301 32.1418 46.7909C33.4505 42.3445 35.882 37.7207 40.2331 33.915C44.5703 30.1216 50.752 27.196 59.477 26.0215C57.5309 11.3337 44.9581 0 29.7385 0C14.5189 0 1.94616 11.3337 0 26.0215C8.72498 27.196 14.9068 30.1216 19.2439 33.915C23.595 37.7207 26.0265 42.3445 27.3352 46.7909C28.6417 51.2301 28.834 55.5062 28.7041 58.6616ZM55.604 45.2072C54.395 46.6235 52.9001 47.8598 51.0533 48.7694C48.8246 49.8672 46.14 50.4614 42.9168 50.3632C42.9388 50.3774 42.9608 50.3916 42.9827 50.4059C43.0305 50.4369 43.0781 50.4682 43.1257 50.4996C44.632 51.4969 46.1236 52.7776 46.9337 54.3311C46.9662 54.3934 46.9977 54.4563 47.028 54.5198C50.5046 52.0638 53.4358 48.8871 55.604 45.2072ZM45.3332 55.6332C45.2837 55.5076 45.226 55.3818 45.1603 55.2558C44.5839 54.1506 43.4284 53.0986 42.0216 52.1673C41.9396 52.113 41.857 52.0593 41.774 52.0062C43.2339 53.1531 44.3878 54.5678 44.4002 56.1792C44.7148 56.0027 45.0258 55.8206 45.3332 55.6332ZM36.0024 48.911L36.0043 48.9048C35.9284 48.8802 35.852 48.8551 35.7754 48.8294C35.7754 48.8294 35.8563 48.857 36.0024 48.911ZM45.9476 48.2235C47.5661 48.0077 48.9628 47.5697 50.1696 46.9753C53.289 45.4388 55.2927 42.7817 56.5775 39.8327C57.865 36.8774 58.4027 33.6879 58.6135 31.2121C58.7184 29.9792 58.7414 28.9352 58.7382 28.2021L58.738 28.1488C52.4132 29.1243 47.6227 31.0663 43.9961 33.5328C46.1463 32.3754 48.6957 31.4953 51.7153 31C51.7153 31 52.4255 43.7612 45.9476 48.2235ZM32.7408 56.5721C32.7331 57.2804 32.7454 57.9522 32.7713 58.5793C32.7896 59.0241 32.8147 59.4457 32.8441 59.8412C32.8655 59.839 32.8869 59.8368 32.9083 59.8345C32.828 58.9735 32.755 57.8601 32.7408 56.5721ZM12.5434 54.3311C12.5108 54.3934 12.4794 54.4563 12.449 54.5197C8.97243 52.0638 6.04127 48.8871 3.87302 45.2072C5.08206 46.6235 6.57692 47.8598 8.42376 48.7694C10.6524 49.8672 13.337 50.4614 16.5602 50.3632C16.4904 50.4082 16.4207 50.4537 16.3514 50.4996C14.845 51.4969 13.3534 52.7776 12.5434 54.3311ZM26.5684 59.8345L26.633 59.8412C26.6624 59.4457 26.6874 59.0241 26.7058 58.5793C26.7317 57.9488 26.7441 57.2732 26.7361 56.5608C26.7222 57.8535 26.6491 58.9709 26.5684 59.8345ZM7.76146 31C10.7816 31.4953 13.3314 32.3758 15.4818 33.5335C11.8551 31.0667 7.06434 29.1244 0.739068 28.1488L0.73879 28.2021C0.735635 28.9352 0.7586 29.9792 0.863572 31.2121C1.07438 33.6879 1.61206 36.8774 2.89957 39.8327C4.18436 42.7817 6.18808 45.4388 9.30747 46.9753C10.5141 47.5696 11.9108 48.0076 13.5292 48.2235C7.05131 43.7611 7.76146 31 7.76146 31ZM23.7014 48.8294C23.7014 48.8294 23.6206 48.857 23.4746 48.9109L23.4727 48.9047C23.5486 48.8801 23.6248 48.855 23.7014 48.8294ZM29.7385 36C26.4252 36 23.7385 33.3133 23.7385 30C23.7385 26.6858 26.4252 24 29.7385 24C33.0527 24 35.7385 26.6858 35.7385 30C35.7385 33.3133 33.0527 36 29.7385 36Z" fill="white"/>
</svg>
