<svg width="12" height="16" viewBox="0 0 12 16" fill="none" xmlns="http://www.w3.org/2000/svg">
<path fill-rule="evenodd" clip-rule="evenodd" d="M6.00001 1.71777C8.45786 1.71777 10.4503 3.71026 10.4503 6.16811V6.43616C10.4503 7.41958 10.1431 8.37842 9.57147 9.17866L6.0088 14.1664C6.0045 14.1724 5.99553 14.1724 5.99122 14.1664L2.42856 9.17866C1.85696 8.37842 1.54968 7.41958 1.54968 6.43616V6.1681C1.54968 3.71025 3.54216 1.71777 6.00001 1.71777ZM7.95455 5.74852C7.81879 5.15371 7.41956 4.65309 6.86986 4.38837C6.32017 4.12365 5.67985 4.12365 5.13016 4.38837C4.58047 4.65309 4.18123 5.15371 4.04547 5.74852C3.90971 6.34334 4.05219 6.9676 4.43259 7.44461C4.81299 7.92161 5.3899 8.19944 6.00001 8.19944C6.61012 8.19944 7.18703 7.92161 7.56743 7.44461C7.94783 6.96761 8.09032 6.34334 7.95455 5.74852Z" fill="#A879C6"/>
<path d="M9.57147 9.17866L10.7921 10.0505V10.0505L9.57147 9.17866ZM6.0088 14.1664L4.7882 13.2945L4.78815 13.2946L6.0088 14.1664ZM5.99122 14.1664L7.21187 13.2946L7.21182 13.2945L5.99122 14.1664ZM2.42856 9.17866L1.20796 10.0505H1.20796L2.42856 9.17866ZM6.86986 4.38837L6.21904 5.73982L6.86986 4.38837ZM7.95455 5.74852L9.41694 5.41474L7.95455 5.74852ZM5.13016 4.38837L5.78099 5.73982L5.13016 4.38837ZM4.04547 5.74852L5.50786 6.0823L4.04547 5.74852ZM4.43259 7.44461L3.25985 8.37984L3.25985 8.37984L4.43259 7.44461ZM11.9503 6.16811C11.9503 2.88183 9.28629 0.217773 6.00001 0.217773V3.21777C7.62944 3.21777 8.95034 4.53868 8.95034 6.16811L11.9503 6.16811ZM11.9503 6.43616V6.16811L8.95034 6.16811V6.43616L11.9503 6.43616ZM10.7921 10.0505C11.5454 8.99588 11.9503 7.73221 11.9503 6.43616L8.95034 6.43616C8.95034 7.10694 8.74075 7.76097 8.35087 8.30681L10.7921 10.0505ZM7.2294 15.0382L10.7921 10.0505L8.35087 8.30681L4.7882 13.2945L7.2294 15.0382ZM4.77057 15.0382C5.3731 15.8818 6.62692 15.8818 7.22946 15.0382L4.78815 13.2946C5.38207 12.463 6.61796 12.463 7.21187 13.2946L4.77057 15.0382ZM1.20796 10.0505L4.77062 15.0382L7.21182 13.2945L3.64916 8.30681L1.20796 10.0505ZM0.0496826 6.43616C0.0496826 7.73221 0.454644 8.99588 1.20796 10.0505L3.64916 8.30681C3.25927 7.76097 3.04968 7.10694 3.04968 6.43616H0.0496826ZM0.0496826 6.1681V6.43616H3.04968V6.1681H0.0496826ZM6.00001 0.217773C2.71374 0.217773 0.0496826 2.88183 0.0496826 6.1681H3.04968C3.04968 4.53868 4.37059 3.21777 6.00001 3.21777V0.217773ZM6.21904 5.73982C6.35745 5.80648 6.45798 5.93253 6.49216 6.0823L9.41694 5.41474C9.1796 4.37489 8.48166 3.49969 7.52069 3.03691L6.21904 5.73982ZM5.78099 5.73982C5.9194 5.67317 6.08063 5.67317 6.21904 5.73982L7.52069 3.03691C6.55972 2.57413 5.44031 2.57413 4.47933 3.03691L5.78099 5.73982ZM5.50786 6.0823C5.54205 5.93253 5.64257 5.80648 5.78099 5.73982L4.47933 3.03691C3.51836 3.49969 2.82042 4.37488 2.58308 5.41474L5.50786 6.0823ZM5.60534 6.50937C5.50956 6.38927 5.47368 6.23208 5.50786 6.0823L2.58308 5.41474C2.34574 6.4546 2.59483 7.54594 3.25985 8.37984L5.60534 6.50937ZM6.00001 6.69944C5.84639 6.69944 5.70112 6.62948 5.60534 6.50937L3.25985 8.37984C3.92486 9.21374 4.93341 9.69944 6.00001 9.69944V6.69944ZM6.39468 6.50937C6.2989 6.62948 6.15364 6.69944 6.00001 6.69944V9.69944C7.06661 9.69944 8.07517 9.21374 8.74018 8.37984L6.39468 6.50937ZM6.49216 6.0823C6.52635 6.23208 6.49047 6.38927 6.39468 6.50937L8.74018 8.37984C9.40519 7.54594 9.65429 6.4546 9.41694 5.41474L6.49216 6.0823Z" fill="#A879C6"/>
</svg>
