<svg width="44" height="52" viewBox="0 0 44 52" fill="none" xmlns="http://www.w3.org/2000/svg">
<path d="M39.7594 21.3962C38.3673 18.4294 36.9286 15.3624 36.217 11.9302C36.1624 11.3292 35.5098 4.75896 32.8372 1.54287C32.4977 1.13508 31.7421 1.09232 30.2369 1.00641C28.6188 0.914014 26.4027 0.788012 23.9695 0.146181C22.8458 -0.150494 21.9012 0.00491084 21.1609 0.6078C19.8914 1.64135 19.3426 3.92574 19.5305 7.39607L19.5389 7.54689C19.5431 7.60035 19.548 7.65303 19.5557 7.69924C19.6874 8.54038 20.0337 9.33265 20.5572 9.99047L20.5618 9.9962C20.8248 10.3257 21.215 10.53 21.6362 10.551C22.4166 10.5903 23.6335 10.5796 24.8323 10.2803C25.4512 10.1256 25.9664 9.67548 26.2107 9.07645C26.4451 8.50144 26.3291 7.91456 26.0839 7.36553C25.945 7.05358 25.801 6.93102 25.6953 6.96577C24.5365 7.34873 23.7576 7.36324 23.6975 7.35713C23.4219 7.34911 23.205 7.11926 23.213 6.84321C23.2207 6.56754 23.4532 6.33998 23.7269 6.35869C23.7239 6.35831 24.1622 6.35487 25.142 6.03109C25.5437 5.89745 26.3111 5.82643 26.935 6.84245C27.4184 7.62899 27.4917 8.58084 27.1355 9.4537C26.7712 10.3464 26.0012 11.0176 25.0744 11.2494C24.0733 11.4995 23.0767 11.5682 22.2829 11.5682C22.2154 11.5682 22.1497 11.5678 22.0856 11.5667C21.5174 11.5605 21.1451 12.1588 21.401 12.6659L21.7003 13.2592C22.4395 14.7246 23.4539 15.5635 25.0927 15.4761C29.1277 15.2607 29.1934 15.5307 29.5 17.1996C30.4962 22.6264 30.1682 27.1412 29.6868 29.6454C29.363 31.3289 29.0564 32.9363 29.2305 35.0691C23.9008 30.7451 17.7435 32.4762 15.3312 34.2688C9.06486 29.1353 2.49339 31.2784 0.629395 32.0547V49.8775C2.66864 51.323 5.04658 51.6896 7.25883 51.7911C11.6363 51.9927 14.9134 50.207 15.34 49.9951C17.6137 51.3257 20.1623 52 22.9805 52C25.5475 51.9996 28.3362 51.4468 31.3346 50.3395C32.3816 49.9527 33.1803 49.5098 33.8225 49.154C34.5839 48.7321 35.1341 48.4266 35.6801 48.4251C37.0783 48.4167 38.4185 47.9448 39.4532 47.096C40.3562 46.3549 40.7323 45.6787 40.7952 44.6844C40.8349 44.0517 40.9827 43.469 41.2347 42.9525C45.637 33.9175 42.7826 27.8353 39.7601 21.3958L39.7594 21.3962ZM29.6663 46.7042C27.485 47.6282 25.4102 47.9371 23.6126 47.9371C20.1128 47.9371 17.662 46.7676 17.5093 46.6931C17.2619 46.5721 17.1596 46.2731 17.2802 46.0257C17.4009 45.7783 17.7006 45.6748 17.9476 45.7955C18.0007 45.821 23.2808 48.3242 29.2762 45.7848C29.5302 45.6763 29.8234 45.7962 29.9307 46.0497C30.0387 46.3036 29.9204 46.5965 29.6661 46.7042L29.6663 46.7042ZM40.3283 38.2524C40.2328 38.4005 40.0721 38.4815 39.9079 38.4815C39.8151 38.4815 39.7216 38.4559 39.638 38.402C39.4062 38.2528 39.3386 37.9439 39.4879 37.7117C40.7708 35.716 39.8655 31.2361 39.8564 31.1911C39.8006 30.9207 39.974 30.6569 40.2443 30.6008C40.5139 30.5439 40.7785 30.7184 40.8346 30.9887C40.8758 31.1892 41.8315 35.9138 40.3283 38.2524Z" fill="#B6DD6A"/>
</svg>
