<svg width="45" height="52" viewBox="0 0 45 52" fill="none" xmlns="http://www.w3.org/2000/svg">
<path d="M41.4244 6.51927C41.2661 6.64623 41.1011 6.76654 40.9489 6.8935C40.7145 7.10273 40.4163 7.21066 40.1182 7.21066C39.763 7.21066 39.4144 7.05849 39.1605 6.77318C38.704 6.2468 38.7545 5.44125 39.2875 4.98478C39.5157 4.78174 39.7696 4.59817 40.0169 4.40752C38.7739 2.75229 37.2966 1.26206 35.6161 0H8.99452C7.30781 1.26206 5.8366 2.75229 4.59368 4.40752C4.84095 4.59154 5.08822 4.78174 5.3231 4.98478C5.84949 5.44128 5.90655 6.24061 5.45006 6.77318C5.19659 7.05849 4.84139 7.21066 4.48619 7.21066C4.19469 7.21066 3.89655 7.10273 3.65548 6.8935C3.50331 6.76654 3.34495 6.64623 3.18615 6.51927C1.20095 9.88635 0.110107 13.7613 0.110107 17.7561C0.110107 22.7846 1.75877 27.5345 4.87241 31.4853C4.92947 31.5551 4.97371 31.6312 5.01175 31.7073H9.93282C9.17198 30.8638 8.44881 29.9379 7.76405 28.9299C7.3708 28.3526 7.52297 27.5599 8.10023 27.1672C8.68368 26.7739 9.47021 26.9261 9.86292 27.5096C10.0279 27.7506 10.1991 27.9851 10.3703 28.22C13.6613 32.7226 17.872 35.1958 22.3046 35.1958C26.7374 35.1958 30.948 32.7226 34.239 28.22C34.4102 27.9855 34.5752 27.7506 34.7464 27.5096C35.1396 26.9261 35.9256 26.7739 36.5029 27.1672C37.0864 27.5604 37.2386 28.3531 36.8453 28.9299C36.1606 29.938 35.4312 30.8638 34.6703 31.7073H39.5976C39.6356 31.6312 39.6799 31.5551 39.7369 31.4853C42.8515 27.5347 44.5 22.7853 44.5 17.7561C44.5 13.7613 43.403 9.88635 41.4244 6.51927ZM7.03463 8.76414C7.64993 8.43459 8.41695 8.66904 8.75316 9.28434C8.96858 9.69041 9.16542 10.1089 9.34944 10.5335C9.62192 11.1802 9.31759 11.9225 8.67708 12.1949C8.51209 12.2648 8.34753 12.2962 8.18254 12.2962C7.68799 12.2962 7.21867 12.0047 7.00948 11.5226C6.86351 11.174 6.69232 10.8188 6.51494 10.4826C6.18495 9.86734 6.41315 9.09367 7.03463 8.76414ZM9.3428 22.55L8.93674 23.7549C8.75936 24.2813 8.26437 24.6175 7.73798 24.6175C7.59864 24.6175 7.4655 24.5923 7.32572 24.5476C6.66619 24.3256 6.31099 23.6028 6.53304 22.937L6.9391 21.7383C7.16735 21.0725 7.88396 20.7173 8.54972 20.9456C9.20969 21.1676 9.57105 21.8904 9.3428 22.55ZM10.5349 17.2866C10.4968 17.9651 9.9386 18.4853 9.2667 18.4853H9.19681C8.49923 18.4473 7.96669 17.851 8.00474 17.1534C8.01757 16.9252 8.02376 16.6969 8.02376 16.4686C8.02376 16.3103 8.01757 16.1581 8.01093 15.9993C7.98572 15.2956 8.53113 14.7121 9.22871 14.6803C9.92629 14.6485 10.5226 15.2005 10.5477 15.9043C10.5539 16.0883 10.5606 16.2785 10.5606 16.4688C10.5606 16.7412 10.5477 17.0141 10.5349 17.2866ZM22.305 29.8052C21.6013 29.8052 21.0369 29.2346 21.0369 28.5371C21.0369 28.4229 21.0559 28.3216 21.0811 28.2199C21.2204 27.6745 21.7154 27.2689 22.3051 27.2689C22.8948 27.2689 23.3893 27.6749 23.5291 28.2199C23.5543 28.3212 23.5733 28.4225 23.5733 28.5366C23.5733 29.2342 23.0027 29.8052 22.3052 29.8052L22.305 29.8052ZM34.0752 17.2866C34.0562 17.0141 34.05 16.7412 34.05 16.4687C34.05 16.2785 34.0562 16.0883 34.0628 15.898C34.088 15.2005 34.6653 14.6612 35.3818 14.6803C36.0794 14.7121 36.6248 15.3018 36.5996 15.9993C36.5934 16.1576 36.5868 16.3098 36.5868 16.4686C36.5868 16.6968 36.593 16.9251 36.6058 17.1534C36.6438 17.8509 36.1112 18.4472 35.407 18.4853H35.3371C34.671 18.4853 34.1067 17.9651 34.0752 17.2866ZM37.2773 24.5476C37.1441 24.5919 37.0048 24.6175 36.8712 24.6175C36.3448 24.6175 35.8503 24.2813 35.6724 23.7549L35.2664 22.55C35.0381 21.8904 35.3933 21.1676 36.059 20.9456C36.7186 20.7173 37.4414 21.0725 37.6697 21.7383L38.0757 22.9432C38.2982 23.6028 37.9434 24.3256 37.2773 24.5476ZM38.0956 10.4821C37.9116 10.8183 37.747 11.1735 37.5944 11.5221C37.3914 12.0042 36.9221 12.2957 36.4275 12.2957C36.2625 12.2957 36.0979 12.2639 35.9329 12.1944C35.2862 11.9219 34.9881 11.1735 35.2606 10.533C35.438 10.1079 35.641 9.68941 35.8569 9.2838C36.1864 8.66851 36.9539 8.43407 37.5754 8.7636C38.1907 9.09315 38.4251 9.86678 38.0956 10.4821Z" fill="#B6DD6A"/>
<path d="M22.305 37.7316C18.868 37.7316 15.5703 36.5205 12.6407 34.2437H5.06244C5.05624 35.4424 5.14471 36.6345 5.34155 37.7886L5.36677 37.9218C5.37296 37.966 5.38579 38.0107 5.39198 38.0549C8.64502 38.0739 11.3782 38.5751 13.655 39.317C18.208 40.801 20.9413 43.2551 22.3046 44.8277C23.6679 43.2551 26.4011 40.801 30.9542 39.317C33.2309 38.5752 35.9637 38.0739 39.2172 38.0549C39.2234 38.0107 39.23 37.966 39.2424 37.928L39.2614 37.7886C39.4644 36.6346 39.5529 35.4424 39.5467 34.2437H31.9632C29.0398 36.52 25.742 37.7316 22.305 37.7316Z" fill="#B6DD6A"/>
<path d="M23.5734 47.3072V51.9999H34.5249C34.8611 51.1121 35.2163 50.2182 35.5777 49.3114C36.7127 46.464 37.8668 43.5343 38.647 40.5981C28.6337 40.8578 24.4354 46.0642 23.5737 47.3072H23.5734Z" fill="#B6DD6A"/>
<path d="M5.96338 40.5977C6.74323 43.534 7.89729 46.4636 9.03274 49.3171C9.38794 50.2177 9.74314 51.1179 10.0855 51.9995L21.0371 52V47.3072C20.1807 46.0704 15.9828 40.8579 5.96371 40.5978L5.96338 40.5977Z" fill="#B6DD6A"/>
</svg>
