<svg width="106" height="106" viewBox="0 0 106 106" fill="none" xmlns="http://www.w3.org/2000/svg">
<path d="M3.81365 0.640137H0.64032V3.81347H3.81365V0.640137Z" fill="#29292B"/>
<path d="M6.98699 0.640137H3.81365V3.81347H6.98699V0.640137Z" fill="#29292B"/>
<path d="M10.1603 0.640137H6.98699V3.81347H10.1603V0.640137Z" fill="#29292B"/>
<path d="M13.3337 0.640137H10.1603V3.81347H13.3337V0.640137Z" fill="#29292B"/>
<path d="M16.507 0.640137H13.3337V3.81347H16.507V0.640137Z" fill="#29292B"/>
<path d="M19.6803 0.640137H16.507V3.81347H19.6803V0.640137Z" fill="#29292B"/>
<path d="M22.8537 0.640137H19.6803V3.81347H22.8537V0.640137Z" fill="#29292B"/>
<path d="M29.2003 0.640137H26.027V3.81347H29.2003V0.640137Z" fill="#29292B"/>
<path d="M32.3737 0.640137H29.2003V3.81347H32.3737V0.640137Z" fill="#29292B"/>
<path d="M35.547 0.640137H32.3737V3.81347H35.547V0.640137Z" fill="#29292B"/>
<path d="M38.7203 0.640137H35.547V3.81347H38.7203V0.640137Z" fill="#29292B"/>
<path d="M41.8937 0.640137H38.7203V3.81347H41.8937V0.640137Z" fill="#29292B"/>
<path d="M45.067 0.640137H41.8937V3.81347H45.067V0.640137Z" fill="#29292B"/>
<path d="M57.7603 0.640137H54.587V3.81347H57.7603V0.640137Z" fill="#29292B"/>
<path d="M60.9337 0.640137H57.7603V3.81347H60.9337V0.640137Z" fill="#29292B"/>
<path d="M64.107 0.640137H60.9337V3.81347H64.107V0.640137Z" fill="#29292B"/>
<path d="M67.2803 0.640137H64.107V3.81347H67.2803V0.640137Z" fill="#29292B"/>
<path d="M70.4537 0.640137H67.2803V3.81347H70.4537V0.640137Z" fill="#29292B"/>
<path d="M73.627 0.640137H70.4537V3.81347H73.627V0.640137Z" fill="#29292B"/>
<path d="M76.8003 0.640137H73.627V3.81347H76.8003V0.640137Z" fill="#29292B"/>
<path d="M79.9737 0.640137H76.8003V3.81347H79.9737V0.640137Z" fill="#29292B"/>
<path d="M86.3203 0.640137H83.147V3.81347H86.3203V0.640137Z" fill="#29292B"/>
<path d="M89.4937 0.640137H86.3203V3.81347H89.4937V0.640137Z" fill="#29292B"/>
<path d="M92.667 0.640137H89.4937V3.81347H92.667V0.640137Z" fill="#29292B"/>
<path d="M95.8403 0.640137H92.667V3.81347H95.8403V0.640137Z" fill="#29292B"/>
<path d="M99.0137 0.640137H95.8403V3.81347H99.0137V0.640137Z" fill="#29292B"/>
<path d="M102.187 0.640137H99.0137V3.81347H102.187V0.640137Z" fill="#29292B"/>
<path d="M105.36 0.640137H102.187V3.81347H105.36V0.640137Z" fill="#29292B"/>
<path d="M3.81365 3.81347H0.64032V6.9868H3.81365V3.81347Z" fill="#29292B"/>
<path d="M22.8537 3.81347H19.6803V6.9868H22.8537V3.81347Z" fill="#29292B"/>
<path d="M32.3737 3.81347H29.2003V6.9868H32.3737V3.81347Z" fill="#29292B"/>
<path d="M38.7203 3.81347H35.547V6.9868H38.7203V3.81347Z" fill="#29292B"/>
<path d="M41.8937 3.81347H38.7203V6.9868H41.8937V3.81347Z" fill="#29292B"/>
<path d="M48.2403 3.81347H45.067V6.9868H48.2403V3.81347Z" fill="#29292B"/>
<path d="M60.9337 3.81347H57.7603V6.9868H60.9337V3.81347Z" fill="#29292B"/>
<path d="M86.3203 3.81347H83.147V6.9868H86.3203V3.81347Z" fill="#29292B"/>
<path d="M105.36 3.81347H102.187V6.9868H105.36V3.81347Z" fill="#29292B"/>
<path d="M3.81365 6.9868H0.64032V10.1601H3.81365V6.9868Z" fill="#29292B"/>
<path d="M10.1603 6.9868H6.98699V10.1601H10.1603V6.9868Z" fill="#29292B"/>
<path d="M13.3337 6.9868H10.1603V10.1601H13.3337V6.9868Z" fill="#29292B"/>
<path d="M16.507 6.9868H13.3337V10.1601H16.507V6.9868Z" fill="#29292B"/>
<path d="M22.8537 6.9868H19.6803V10.1601H22.8537V6.9868Z" fill="#29292B"/>
<path d="M29.2003 6.9868H26.027V10.1601H29.2003V6.9868Z" fill="#29292B"/>
<path d="M32.3737 6.9868H29.2003V10.1601H32.3737V6.9868Z" fill="#29292B"/>
<path d="M35.547 6.9868H32.3737V10.1601H35.547V6.9868Z" fill="#29292B"/>
<path d="M64.107 6.9868H60.9337L60.9337 10.1601H64.107V6.9868Z" fill="#29292B"/>
<path d="M67.2803 6.9868H64.107V10.1601H67.2803V6.9868Z" fill="#29292B"/>
<path d="M76.8003 6.9868H73.627V10.1601H76.8003V6.9868Z" fill="#29292B"/>
<path d="M86.3203 6.9868H83.147V10.1601H86.3203V6.9868Z" fill="#29292B"/>
<path d="M92.667 6.9868H89.4937V10.1601H92.667V6.9868Z" fill="#29292B"/>
<path d="M95.8403 6.9868H92.667V10.1601H95.8403V6.9868Z" fill="#29292B"/>
<path d="M99.0137 6.9868H95.8403V10.1601H99.0137V6.9868Z" fill="#29292B"/>
<path d="M105.36 6.9868H102.187V10.1601H105.36V6.9868Z" fill="#29292B"/>
<path d="M3.81365 10.1601H0.64032V13.3335H3.81365V10.1601Z" fill="#29292B"/>
<path d="M10.1603 10.1601H6.98699V13.3335H10.1603V10.1601Z" fill="#29292B"/>
<path d="M13.3337 10.1601H10.1603V13.3335H13.3337V10.1601Z" fill="#29292B"/>
<path d="M16.507 10.1601H13.3337V13.3335H16.507V10.1601Z" fill="#29292B"/>
<path d="M22.8537 10.1601H19.6803V13.3335H22.8537V10.1601Z" fill="#29292B"/>
<path d="M29.2003 10.1601H26.027V13.3335H29.2003V10.1601Z" fill="#29292B"/>
<path d="M32.3737 10.1601H29.2003V13.3335H32.3737V10.1601Z" fill="#29292B"/>
<path d="M35.547 10.1601H32.3737V13.3335H35.547V10.1601Z" fill="#29292B"/>
<path d="M38.7203 10.1601H35.547V13.3335H38.7203V10.1601Z" fill="#29292B"/>
<path d="M41.8937 10.1601H38.7203V13.3335H41.8937V10.1601Z" fill="#29292B"/>
<path d="M45.067 10.1601H41.8937V13.3335H45.067V10.1601Z" fill="#29292B"/>
<path d="M48.2403 10.1601H45.067V13.3335H48.2403V10.1601Z" fill="#29292B"/>
<path d="M51.4137 10.1601H48.2403V13.3335H51.4137V10.1601Z" fill="#29292B"/>
<path d="M57.7603 10.1601H54.587V13.3335H57.7603V10.1601Z" fill="#29292B"/>
<path d="M60.9337 10.1601H57.7603V13.3335H60.9337L60.9337 10.1601Z" fill="#29292B"/>
<path d="M67.2803 10.1601H64.107V13.3335H67.2803V10.1601Z" fill="#29292B"/>
<path d="M79.9737 10.1601H76.8003V13.3335H79.9737V10.1601Z" fill="#29292B"/>
<path d="M86.3203 10.1601H83.147V13.3335H86.3203V10.1601Z" fill="#29292B"/>
<path d="M92.667 10.1601H89.4937V13.3335H92.667V10.1601Z" fill="#29292B"/>
<path d="M95.8403 10.1601H92.667V13.3335H95.8403V10.1601Z" fill="#29292B"/>
<path d="M99.0137 10.1601H95.8403V13.3335H99.0137V10.1601Z" fill="#29292B"/>
<path d="M105.36 10.1601H102.187V13.3335H105.36V10.1601Z" fill="#29292B"/>
<path d="M3.81365 13.3335H0.64032V16.5068H3.81365V13.3335Z" fill="#29292B"/>
<path d="M10.1603 13.3335H6.98699V16.5068H10.1603V13.3335Z" fill="#29292B"/>
<path d="M13.3337 13.3335H10.1603V16.5068H13.3337V13.3335Z" fill="#29292B"/>
<path d="M16.507 13.3335H13.3337V16.5068H16.507V13.3335Z" fill="#29292B"/>
<path d="M22.8537 13.3335H19.6803V16.5068H22.8537V13.3335Z" fill="#29292B"/>
<path d="M29.2003 13.3335H26.027V16.5068H29.2003V13.3335Z" fill="#29292B"/>
<path d="M32.3737 13.3335H29.2003V16.5068H32.3737V13.3335Z" fill="#29292B"/>
<path d="M38.7203 13.3335H35.547V16.5068H38.7203V13.3335Z" fill="#29292B"/>
<path d="M41.8937 13.3335H38.7203V16.5068H41.8937V13.3335Z" fill="#29292B"/>
<path d="M48.2403 13.3335H45.067V16.5068H48.2403V13.3335Z" fill="#29292B"/>
<path d="M51.4137 13.3335H48.2403V16.5068H51.4137V13.3335Z" fill="#29292B"/>
<path d="M54.587 13.3335H51.4137V16.5068H54.587V13.3335Z" fill="#29292B"/>
<path d="M70.4537 13.3335H67.2803V16.5068H70.4537V13.3335Z" fill="#29292B"/>
<path d="M73.627 13.3335H70.4537V16.5068H73.627V13.3335Z" fill="#29292B"/>
<path d="M76.8003 13.3335H73.627V16.5068H76.8003V13.3335Z" fill="#29292B"/>
<path d="M79.9737 13.3335H76.8003V16.5068H79.9737V13.3335Z" fill="#29292B"/>
<path d="M86.3203 13.3335H83.147V16.5068H86.3203V13.3335Z" fill="#29292B"/>
<path d="M92.667 13.3335H89.4937V16.5068H92.667V13.3335Z" fill="#29292B"/>
<path d="M95.8403 13.3335H92.667V16.5068H95.8403V13.3335Z" fill="#29292B"/>
<path d="M99.0137 13.3335H95.8403V16.5068H99.0137V13.3335Z" fill="#29292B"/>
<path d="M105.36 13.3335H102.187V16.5068H105.36V13.3335Z" fill="#29292B"/>
<path d="M3.81365 16.5068H0.64032V19.6801H3.81365V16.5068Z" fill="#29292B"/>
<path d="M22.8537 16.5068H19.6803V19.6801H22.8537V16.5068Z" fill="#29292B"/>
<path d="M29.2003 16.5068H26.027V19.6801H29.2003V16.5068Z" fill="#29292B"/>
<path d="M32.3737 16.5068H29.2003V19.6801H32.3737V16.5068Z" fill="#29292B"/>
<path d="M60.9337 16.5068H57.7603V19.6801H60.9337V16.5068Z" fill="#29292B"/>
<path d="M64.107 16.5068H60.9337V19.6801H64.107V16.5068Z" fill="#29292B"/>
<path d="M86.3203 16.5068H83.147V19.6801H86.3203V16.5068Z" fill="#29292B"/>
<path d="M105.36 16.5068H102.187V19.6801H105.36V16.5068Z" fill="#29292B"/>
<path d="M3.81365 19.6801H0.64032V22.8535H3.81365V19.6801Z" fill="#29292B"/>
<path d="M6.98699 19.6801H3.81365V22.8535H6.98699V19.6801Z" fill="#29292B"/>
<path d="M10.1603 19.6801H6.98699V22.8535H10.1603V19.6801Z" fill="#29292B"/>
<path d="M13.3337 19.6801H10.1603V22.8535H13.3337V19.6801Z" fill="#29292B"/>
<path d="M16.507 19.6801H13.3337V22.8535H16.507V19.6801Z" fill="#29292B"/>
<path d="M19.6803 19.6801H16.507V22.8535H19.6803V19.6801Z" fill="#29292B"/>
<path d="M22.8537 19.6801H19.6803V22.8535H22.8537V19.6801Z" fill="#29292B"/>
<path d="M29.2003 19.6801H26.027V22.8535H29.2003V19.6801Z" fill="#29292B"/>
<path d="M35.547 19.6801H32.3737V22.8535H35.547V19.6801Z" fill="#29292B"/>
<path d="M41.8937 19.6801H38.7203V22.8535H41.8937V19.6801Z" fill="#29292B"/>
<path d="M48.2403 19.6801H45.067V22.8535H48.2403V19.6801Z" fill="#29292B"/>
<path d="M54.587 19.6801H51.4137V22.8535H54.587V19.6801Z" fill="#29292B"/>
<path d="M60.9337 19.6801H57.7603V22.8535H60.9337V19.6801Z" fill="#29292B"/>
<path d="M67.2803 19.6801H64.107V22.8535H67.2803V19.6801Z" fill="#29292B"/>
<path d="M73.627 19.6801H70.4537V22.8535H73.627V19.6801Z" fill="#29292B"/>
<path d="M79.9737 19.6801H76.8003V22.8535H79.9737V19.6801Z" fill="#29292B"/>
<path d="M86.3203 19.6801H83.147V22.8535H86.3203V19.6801Z" fill="#29292B"/>
<path d="M89.4937 19.6801H86.3203V22.8535H89.4937V19.6801Z" fill="#29292B"/>
<path d="M92.667 19.6801H89.4937V22.8535H92.667V19.6801Z" fill="#29292B"/>
<path d="M95.8403 19.6801H92.667V22.8535H95.8403V19.6801Z" fill="#29292B"/>
<path d="M99.0137 19.6801H95.8403V22.8535H99.0137V19.6801Z" fill="#29292B"/>
<path d="M102.187 19.6801H99.0137V22.8535H102.187V19.6801Z" fill="#29292B"/>
<path d="M105.36 19.6801H102.187V22.8535H105.36V19.6801Z" fill="#29292B"/>
<path d="M32.3737 22.8535H29.2003V26.0268H32.3737V22.8535Z" fill="#29292B"/>
<path d="M45.067 22.8535H41.8937V26.0268H45.067V22.8535Z" fill="#29292B"/>
<path d="M51.4137 22.8535H48.2403V26.0268H51.4137V22.8535Z" fill="#29292B"/>
<path d="M57.7603 22.8535H54.587V26.0268H57.7603V22.8535Z" fill="#29292B"/>
<path d="M60.9337 22.8535H57.7603V26.0268H60.9337V22.8535Z" fill="#29292B"/>
<path d="M64.107 22.8535H60.9337V26.0268H64.107V22.8535Z" fill="#29292B"/>
<path d="M67.2803 22.8535H64.107V26.0268H67.2803V22.8535Z" fill="#29292B"/>
<path d="M73.627 22.8535H70.4537V26.0268H73.627V22.8535Z" fill="#29292B"/>
<path d="M10.1603 26.0268H6.98699V29.2001H10.1603V26.0268Z" fill="#29292B"/>
<path d="M13.3337 26.0268H10.1603V29.2001H13.3337V26.0268Z" fill="#29292B"/>
<path d="M16.507 26.0268H13.3337V29.2001H16.507V26.0268Z" fill="#29292B"/>
<path d="M19.6803 26.0268H16.507V29.2001H19.6803V26.0268Z" fill="#29292B"/>
<path d="M22.8537 26.0268H19.6803V29.2001H22.8537V26.0268Z" fill="#29292B"/>
<path d="M26.027 26.0268H22.8537V29.2001H26.027V26.0268Z" fill="#29292B"/>
<path d="M35.547 26.0268H32.3737V29.2001H35.547V26.0268Z" fill="#29292B"/>
<path d="M41.8937 26.0268H38.7203V29.2001H41.8937V26.0268Z" fill="#29292B"/>
<path d="M51.4137 26.0268H48.2403V29.2001H51.4137V26.0268Z" fill="#29292B"/>
<path d="M54.587 26.0268H51.4137V29.2001H54.587V26.0268Z" fill="#29292B"/>
<path d="M73.627 26.0268H70.4537V29.2001H73.627V26.0268Z" fill="#29292B"/>
<path d="M83.147 26.0268H79.9737V29.2001H83.147V26.0268Z" fill="#29292B"/>
<path d="M89.4937 26.0268H86.3203V29.2001H89.4937V26.0268Z" fill="#29292B"/>
<path d="M92.667 26.0268H89.4937V29.2001H92.667V26.0268Z" fill="#29292B"/>
<path d="M95.8403 26.0268H92.667V29.2001H95.8403V26.0268Z" fill="#29292B"/>
<path d="M99.0137 26.0268H95.8403V29.2001H99.0137V26.0268Z" fill="#29292B"/>
<path d="M105.36 26.0268H102.187V29.2001H105.36V26.0268Z" fill="#29292B"/>
<path d="M13.3337 29.2001H10.1603V32.3735H13.3337V29.2001Z" fill="#29292B"/>
<path d="M29.2003 29.2001H26.027V32.3735H29.2003V29.2001Z" fill="#29292B"/>
<path d="M41.8937 29.2001H38.7203V32.3735H41.8937V29.2001Z" fill="#29292B"/>
<path d="M64.107 29.2001H60.9337V32.3735H64.107V29.2001Z" fill="#29292B"/>
<path d="M70.4537 29.2001H67.2803V32.3735H70.4537V29.2001Z" fill="#29292B"/>
<path d="M76.8003 29.2001H73.627V32.3735H76.8003V29.2001Z" fill="#29292B"/>
<path d="M79.9737 29.2001H76.8003V32.3735H79.9737V29.2001Z" fill="#29292B"/>
<path d="M83.147 29.2001H79.9737V32.3735H83.147V29.2001Z" fill="#29292B"/>
<path d="M89.4937 29.2001H86.3203V32.3735H89.4937V29.2001Z" fill="#29292B"/>
<path d="M95.8403 29.2001H92.667V32.3735H95.8403V29.2001Z" fill="#29292B"/>
<path d="M99.0137 29.2001H95.8403V32.3735H99.0137V29.2001Z" fill="#29292B"/>
<path d="M102.187 29.2001H99.0137V32.3735H102.187V29.2001Z" fill="#29292B"/>
<path d="M105.36 29.2001H102.187V32.3735H105.36V29.2001Z" fill="#29292B"/>
<path d="M6.98699 32.3735H3.81365V35.5468H6.98699V32.3735Z" fill="#29292B"/>
<path d="M22.8537 32.3735H19.6803V35.5468H22.8537V32.3735Z" fill="#29292B"/>
<path d="M32.3737 32.3735H29.2003V35.5468H32.3737V32.3735Z" fill="#29292B"/>
<path d="M35.547 32.3735H32.3737V35.5468H35.547V32.3735Z" fill="#29292B"/>
<path d="M45.067 32.3735H41.8937V35.5468H45.067V32.3735Z" fill="#29292B"/>
<path d="M51.4137 32.3735H48.2403V35.5468H51.4137V32.3735Z" fill="#29292B"/>
<path d="M60.9337 32.3735H57.7603V35.5468H60.9337L60.9337 32.3735Z" fill="#29292B"/>
<path d="M76.8003 32.3735H73.627V35.5468H76.8003V32.3735Z" fill="#29292B"/>
<path d="M79.9737 32.3735H76.8003V35.5468H79.9737V32.3735Z" fill="#29292B"/>
<path d="M86.3203 32.3735H83.147V35.5468H86.3203V32.3735Z" fill="#29292B"/>
<path d="M92.667 32.3735H89.4937V35.5468H92.667V32.3735Z" fill="#29292B"/>
<path d="M95.8403 32.3735H92.667V35.5468H95.8403V32.3735Z" fill="#29292B"/>
<path d="M99.0137 32.3735H95.8403V35.5468H99.0137V32.3735Z" fill="#29292B"/>
<path d="M102.187 32.3735H99.0137V35.5468H102.187V32.3735Z" fill="#29292B"/>
<path d="M3.81365 35.5468H0.64032V38.7201H3.81365V35.5468Z" fill="#29292B"/>
<path d="M6.98699 35.5468H3.81365V38.7201H6.98699V35.5468Z" fill="#29292B"/>
<path d="M19.6803 35.5468H16.507V38.7201H19.6803V35.5468Z" fill="#29292B"/>
<path d="M29.2003 35.5468H26.027V38.7201H29.2003V35.5468Z" fill="#29292B"/>
<path d="M35.547 35.5468H32.3737V38.7201H35.547V35.5468Z" fill="#29292B"/>
<path d="M45.067 35.5468H41.8937V38.7201H45.067V35.5468Z" fill="#29292B"/>
<path d="M48.2403 35.5468H45.067V38.7201H48.2403V35.5468Z" fill="#29292B"/>
<path d="M54.587 35.5468H51.4137V38.7201H54.587V35.5468Z" fill="#29292B"/>
<path d="M60.9337 35.5468H57.7603V38.7201H60.9337V35.5468Z" fill="#29292B"/>
<path d="M64.107 35.5468H60.9337V38.7201H64.107V35.5468Z" fill="#29292B"/>
<path d="M67.2803 35.5468H64.107V38.7201H67.2803V35.5468Z" fill="#29292B"/>
<path d="M76.8003 35.5468H73.627V38.7201H76.8003V35.5468Z" fill="#29292B"/>
<path d="M79.9737 35.5468H76.8003V38.7201H79.9737V35.5468Z" fill="#29292B"/>
<path d="M89.4937 35.5468H86.3203V38.7201H89.4937V35.5468Z" fill="#29292B"/>
<path d="M95.8403 35.5468H92.667V38.7201H95.8403V35.5468Z" fill="#29292B"/>
<path d="M99.0137 35.5468H95.8403V38.7201H99.0137V35.5468Z" fill="#29292B"/>
<path d="M102.187 35.5468H99.0137V38.7201H102.187V35.5468Z" fill="#29292B"/>
<path d="M105.36 35.5468H102.187V38.7201H105.36V35.5468Z" fill="#29292B"/>
<path d="M10.1603 38.7201H6.98699V41.8935H10.1603V38.7201Z" fill="#29292B"/>
<path d="M13.3337 38.7201H10.1603V41.8935H13.3337V38.7201Z" fill="#29292B"/>
<path d="M16.507 38.7201H13.3337V41.8935H16.507V38.7201Z" fill="#29292B"/>
<path d="M19.6803 38.7201H16.507V41.8935H19.6803V38.7201Z" fill="#29292B"/>
<path d="M22.8537 38.7201H19.6803V41.8935H22.8537V38.7201Z" fill="#29292B"/>
<path d="M26.027 38.7201H22.8537V41.8935H26.027V38.7201Z" fill="#29292B"/>
<path d="M41.8937 38.7201H38.7203V41.8935H41.8937V38.7201Z" fill="#29292B"/>
<path d="M45.067 38.7201H41.8937V41.8935H45.067V38.7201Z" fill="#29292B"/>
<path d="M48.2403 38.7201H45.067V41.8935H48.2403V38.7201Z" fill="#29292B"/>
<path d="M54.587 38.7201H51.4137V41.8935H54.587V38.7201Z" fill="#29292B"/>
<path d="M57.7603 38.7201H54.587V41.8935H57.7603V38.7201Z" fill="#29292B"/>
<path d="M60.9337 38.7201H57.7603V41.8935H60.9337V38.7201Z" fill="#29292B"/>
<path d="M70.4537 38.7201H67.2803V41.8935H70.4537V38.7201Z" fill="#29292B"/>
<path d="M73.627 38.7201H70.4537V41.8935H73.627V38.7201Z" fill="#29292B"/>
<path d="M83.147 38.7201H79.9737V41.8935H83.147V38.7201Z" fill="#29292B"/>
<path d="M92.667 38.7201H89.4937V41.8935H92.667V38.7201Z" fill="#29292B"/>
<path d="M95.8403 38.7201H92.667V41.8935H95.8403V38.7201Z" fill="#29292B"/>
<path d="M99.0137 38.7201H95.8403V41.8935H99.0137V38.7201Z" fill="#29292B"/>
<path d="M105.36 38.7201H102.187V41.8935H105.36V38.7201Z" fill="#29292B"/>
<path d="M3.81365 41.8935H0.64032V45.0668H3.81365V41.8935Z" fill="#29292B"/>
<path d="M6.98699 41.8935H3.81365V45.0668H6.98699V41.8935Z" fill="#29292B"/>
<path d="M10.1603 41.8935H6.98699V45.0668H10.1603V41.8935Z" fill="#29292B"/>
<path d="M29.2003 41.8935H26.027V45.0668H29.2003V41.8935Z" fill="#29292B"/>
<path d="M48.2403 41.8935H45.067V45.0668H48.2403V41.8935Z" fill="#29292B"/>
<path d="M51.4137 41.8935H48.2403V45.0668H51.4137V41.8935Z" fill="#29292B"/>
<path d="M60.9337 41.8935H57.7603V45.0668H60.9337V41.8935Z" fill="#29292B"/>
<path d="M64.107 41.8935H60.9337V45.0668H64.107V41.8935Z" fill="#29292B"/>
<path d="M76.8003 41.8935H73.627V45.0668H76.8003V41.8935Z" fill="#29292B"/>
<path d="M79.9737 41.8935H76.8003V45.0668H79.9737V41.8935Z" fill="#29292B"/>
<path d="M86.3203 41.8935H83.147V45.0668H86.3203V41.8935Z" fill="#29292B"/>
<path d="M92.667 41.8935H89.4937V45.0668H92.667V41.8935Z" fill="#29292B"/>
<path d="M95.8403 41.8935H92.667V45.0668H95.8403V41.8935Z" fill="#29292B"/>
<path d="M6.98699 45.0668H3.81365V48.2401H6.98699V45.0668Z" fill="#29292B"/>
<path d="M13.3337 45.0668H10.1603V48.2401H13.3337V45.0668Z" fill="#29292B"/>
<path d="M22.8537 45.0668H19.6803V48.2401H22.8537V45.0668Z" fill="#29292B"/>
<path d="M38.7203 45.0668H35.547V48.2401H38.7203V45.0668Z" fill="#29292B"/>
<path d="M45.067 45.0668H41.8937V48.2401H45.067V45.0668Z" fill="#29292B"/>
<path d="M51.4137 45.0668H48.2403V48.2401H51.4137V45.0668Z" fill="#29292B"/>
<path d="M60.9337 45.0668H57.7603V48.2401H60.9337V45.0668Z" fill="#29292B"/>
<path d="M64.107 45.0668H60.9337V48.2401H64.107V45.0668Z" fill="#29292B"/>
<path d="M76.8003 45.0668H73.627V48.2401H76.8003V45.0668Z" fill="#29292B"/>
<path d="M79.9737 45.0668H76.8003V48.2401H79.9737V45.0668Z" fill="#29292B"/>
<path d="M89.4937 45.0668H86.3203V48.2401H89.4937V45.0668Z" fill="#29292B"/>
<path d="M92.667 45.0668H89.4937V48.2401H92.667V45.0668Z" fill="#29292B"/>
<path d="M105.36 45.0668H102.187V48.2401H105.36V45.0668Z" fill="#29292B"/>
<path d="M6.98699 48.2401H3.81365V51.4135H6.98699V48.2401Z" fill="#29292B"/>
<path d="M10.1603 48.2401H6.98699V51.4135H10.1603V48.2401Z" fill="#29292B"/>
<path d="M13.3337 48.2401H10.1603V51.4135H13.3337V48.2401Z" fill="#29292B"/>
<path d="M16.507 48.2401H13.3337V51.4135H16.507V48.2401Z" fill="#29292B"/>
<path d="M19.6803 48.2401H16.507V51.4135H19.6803V48.2401Z" fill="#29292B"/>
<path d="M26.027 48.2401H22.8537V51.4135H26.027V48.2401Z" fill="#29292B"/>
<path d="M29.2003 48.2401H26.027V51.4135H29.2003V48.2401Z" fill="#29292B"/>
<path d="M35.547 48.2401H32.3737V51.4135H35.547V48.2401Z" fill="#29292B"/>
<path d="M38.7203 48.2401H35.547V51.4135H38.7203V48.2401Z" fill="#29292B"/>
<path d="M41.8937 48.2401H38.7203V51.4135H41.8937V48.2401Z" fill="#29292B"/>
<path d="M45.067 48.2401H41.8937V51.4135H45.067V48.2401Z" fill="#29292B"/>
<path d="M60.9337 48.2401H57.7603V51.4135H60.9337V48.2401Z" fill="#29292B"/>
<path d="M64.107 48.2401H60.9337V51.4135H64.107V48.2401Z" fill="#29292B"/>
<path d="M67.2803 48.2401H64.107V51.4135H67.2803V48.2401Z" fill="#29292B"/>
<path d="M70.4537 48.2401H67.2803V51.4135H70.4537V48.2401Z" fill="#29292B"/>
<path d="M73.627 48.2401H70.4537V51.4135H73.627V48.2401Z" fill="#29292B"/>
<path d="M76.8003 48.2401H73.627V51.4135H76.8003V48.2401Z" fill="#29292B"/>
<path d="M79.9737 48.2401H76.8003V51.4135H79.9737V48.2401Z" fill="#29292B"/>
<path d="M86.3203 48.2401H83.147V51.4135H86.3203V48.2401Z" fill="#29292B"/>
<path d="M89.4937 48.2401H86.3203V51.4135H89.4937V48.2401Z" fill="#29292B"/>
<path d="M92.667 48.2401H89.4937V51.4135H92.667V48.2401Z" fill="#29292B"/>
<path d="M95.8403 48.2401H92.667V51.4135H95.8403V48.2401Z" fill="#29292B"/>
<path d="M13.3337 51.4135H10.1603V54.5868H13.3337V51.4135Z" fill="#29292B"/>
<path d="M19.6803 51.4135H16.507V54.5868H19.6803V51.4135Z" fill="#29292B"/>
<path d="M22.8537 51.4135H19.6803V54.5868H22.8537V51.4135Z" fill="#29292B"/>
<path d="M45.067 51.4135H41.8937V54.5868H45.067V51.4135Z" fill="#29292B"/>
<path d="M51.4137 51.4135H48.2403V54.5868H51.4137V51.4135Z" fill="#29292B"/>
<path d="M67.2803 51.4135H64.107V54.5868H67.2803V51.4135Z" fill="#29292B"/>
<path d="M73.627 51.4135H70.4537V54.5868H73.627V51.4135Z" fill="#29292B"/>
<path d="M95.8403 51.4135H92.667V54.5868H95.8403V51.4135Z" fill="#29292B"/>
<path d="M102.187 51.4135H99.0137V54.5868H102.187V51.4135Z" fill="#29292B"/>
<path d="M3.81365 54.5868H0.64032V57.7601H3.81365V54.5868Z" fill="#29292B"/>
<path d="M6.98699 54.5868H3.81365V57.7601H6.98699V54.5868Z" fill="#29292B"/>
<path d="M10.1603 54.5868H6.98699V57.7601H10.1603V54.5868Z" fill="#29292B"/>
<path d="M29.2003 54.5868H26.027V57.7601H29.2003V54.5868Z" fill="#29292B"/>
<path d="M54.587 54.5868H51.4137V57.7601H54.587V54.5868Z" fill="#29292B"/>
<path d="M57.7603 54.5868H54.587V57.7601H57.7603V54.5868Z" fill="#29292B"/>
<path d="M60.9337 54.5868H57.7603V57.7601H60.9337V54.5868Z" fill="#29292B"/>
<path d="M64.107 54.5868H60.9337V57.7601H64.107V54.5868Z" fill="#29292B"/>
<path d="M79.9737 54.5868H76.8003V57.7601H79.9737V54.5868Z" fill="#29292B"/>
<path d="M105.36 54.5868H102.187V57.7601H105.36V54.5868Z" fill="#29292B"/>
<path d="M3.81365 57.7601H0.64032V60.9335H3.81365V57.7601Z" fill="#29292B"/>
<path d="M10.1603 57.7601H6.98699V60.9335H10.1603V57.7601Z" fill="#29292B"/>
<path d="M16.507 57.7601H13.3337V60.9335H16.507V57.7601Z" fill="#29292B"/>
<path d="M19.6803 57.7601H16.507V60.9335H19.6803V57.7601Z" fill="#29292B"/>
<path d="M22.8537 57.7601H19.6803V60.9335H22.8537V57.7601Z" fill="#29292B"/>
<path d="M26.027 57.7601H22.8537V60.9335H26.027V57.7601Z" fill="#29292B"/>
<path d="M29.2003 57.7601H26.027V60.9335H29.2003V57.7601Z" fill="#29292B"/>
<path d="M32.3737 57.7601H29.2003V60.9335H32.3737V57.7601Z" fill="#29292B"/>
<path d="M35.547 57.7601H32.3737V60.9335H35.547V57.7601Z" fill="#29292B"/>
<path d="M41.8937 57.7601H38.7203V60.9335H41.8937V57.7601Z" fill="#29292B"/>
<path d="M48.2403 57.7601H45.067V60.9335H48.2403V57.7601Z" fill="#29292B"/>
<path d="M51.4137 57.7601H48.2403V60.9335H51.4137V57.7601Z" fill="#29292B"/>
<path d="M54.587 57.7601H51.4137V60.9335H54.587V57.7601Z" fill="#29292B"/>
<path d="M57.7603 57.7601H54.587V60.9335H57.7603V57.7601Z" fill="#29292B"/>
<path d="M64.107 57.7601H60.9337L60.9337 60.9335H64.107V57.7601Z" fill="#29292B"/>
<path d="M70.4537 57.7601H67.2803V60.9335H70.4537V57.7601Z" fill="#29292B"/>
<path d="M73.627 57.7601H70.4537V60.9335H73.627V57.7601Z" fill="#29292B"/>
<path d="M76.8003 57.7601H73.627V60.9335H76.8003V57.7601Z" fill="#29292B"/>
<path d="M79.9737 57.7601H76.8003V60.9335H79.9737V57.7601Z" fill="#29292B"/>
<path d="M83.147 57.7601H79.9737V60.9335H83.147V57.7601Z" fill="#29292B"/>
<path d="M86.3203 57.7601H83.147V60.9335H86.3203V57.7601Z" fill="#29292B"/>
<path d="M92.667 57.7601H89.4937V60.9335H92.667V57.7601Z" fill="#29292B"/>
<path d="M99.0137 57.7601H95.8403V60.9335H99.0137V57.7601Z" fill="#29292B"/>
<path d="M102.187 57.7601H99.0137V60.9335H102.187V57.7601Z" fill="#29292B"/>
<path d="M105.36 57.7601H102.187V60.9335H105.36V57.7601Z" fill="#29292B"/>
<path d="M3.81365 60.9335H0.64032V64.1068H3.81365V60.9335Z" fill="#29292B"/>
<path d="M32.3737 60.9335H29.2003V64.1068H32.3737V60.9335Z" fill="#29292B"/>
<path d="M48.2403 60.9335H45.067V64.1068H48.2403V60.9335Z" fill="#29292B"/>
<path d="M51.4137 60.9335H48.2403V64.1068H51.4137V60.9335Z" fill="#29292B"/>
<path d="M54.587 60.9335H51.4137V64.1068H54.587V60.9335Z" fill="#29292B"/>
<path d="M57.7603 60.9335H54.587V64.1068H57.7603V60.9335Z" fill="#29292B"/>
<path d="M83.147 60.9335H79.9737V64.1068H83.147V60.9335Z" fill="#29292B"/>
<path d="M99.0137 60.9335H95.8403V64.1068H99.0137V60.9335Z" fill="#29292B"/>
<path d="M102.187 60.9335H99.0137V64.1068H102.187V60.9335Z" fill="#29292B"/>
<path d="M105.36 60.9335H102.187V64.1068H105.36V60.9335Z" fill="#29292B"/>
<path d="M13.3337 64.1068H10.1603V67.2801H13.3337V64.1068Z" fill="#29292B"/>
<path d="M19.6803 64.1068H16.507V67.2801H19.6803V64.1068Z" fill="#29292B"/>
<path d="M22.8537 64.1068H19.6803V67.2801H22.8537V64.1068Z" fill="#29292B"/>
<path d="M45.067 64.1068H41.8937V67.2801H45.067V64.1068Z" fill="#29292B"/>
<path d="M51.4137 64.1068H48.2403V67.2801H51.4137V64.1068Z" fill="#29292B"/>
<path d="M67.2803 64.1068H64.107V67.2801H67.2803V64.1068Z" fill="#29292B"/>
<path d="M73.627 64.1068H70.4537V67.2801H73.627V64.1068Z" fill="#29292B"/>
<path d="M95.8403 64.1068H92.667V67.2801H95.8403V64.1068Z" fill="#29292B"/>
<path d="M102.187 64.1068H99.0137V67.2801H102.187V64.1068Z" fill="#29292B"/>
<path d="M3.81365 67.2801H0.64032V70.4535H3.81365V67.2801Z" fill="#29292B"/>
<path d="M6.98699 67.2801H3.81365V70.4535H6.98699V67.2801Z" fill="#29292B"/>
<path d="M10.1603 67.2801H6.98699V70.4535H10.1603V67.2801Z" fill="#29292B"/>
<path d="M16.507 67.2801H13.3337V70.4535H16.507V67.2801Z" fill="#29292B"/>
<path d="M19.6803 67.2801H16.507V70.4535H19.6803V67.2801Z" fill="#29292B"/>
<path d="M26.027 67.2801H22.8537V70.4535H26.027V67.2801Z" fill="#29292B"/>
<path d="M29.2003 67.2801H26.027V70.4535H29.2003V67.2801Z" fill="#29292B"/>
<path d="M32.3737 67.2801H29.2003V70.4535H32.3737V67.2801Z" fill="#29292B"/>
<path d="M35.547 67.2801H32.3737V70.4535H35.547V67.2801Z" fill="#29292B"/>
<path d="M38.7203 67.2801H35.547V70.4535H38.7203V67.2801Z" fill="#29292B"/>
<path d="M41.8937 67.2801H38.7203V70.4535H41.8937V67.2801Z" fill="#29292B"/>
<path d="M45.067 67.2801H41.8937V70.4535H45.067V67.2801Z" fill="#29292B"/>
<path d="M48.2403 67.2801H45.067V70.4535H48.2403V67.2801Z" fill="#29292B"/>
<path d="M51.4137 67.2801H48.2403V70.4535H51.4137V67.2801Z" fill="#29292B"/>
<path d="M67.2803 67.2801H64.107V70.4535H67.2803V67.2801Z" fill="#29292B"/>
<path d="M70.4537 67.2801H67.2803V70.4535H70.4537V67.2801Z" fill="#29292B"/>
<path d="M73.627 67.2801H70.4537V70.4535H73.627V67.2801Z" fill="#29292B"/>
<path d="M76.8003 67.2801H73.627V70.4535H76.8003V67.2801Z" fill="#29292B"/>
<path d="M83.147 67.2801H79.9737V70.4535H83.147V67.2801Z" fill="#29292B"/>
<path d="M86.3203 67.2801H83.147V70.4535H86.3203V67.2801Z" fill="#29292B"/>
<path d="M89.4937 67.2801H86.3203V70.4535H89.4937V67.2801Z" fill="#29292B"/>
<path d="M92.667 67.2801H89.4937V70.4535H92.667V67.2801Z" fill="#29292B"/>
<path d="M95.8403 67.2801H92.667V70.4535H95.8403V67.2801Z" fill="#29292B"/>
<path d="M99.0137 67.2801H95.8403V70.4535H99.0137V67.2801Z" fill="#29292B"/>
<path d="M102.187 67.2801H99.0137V70.4535H102.187V67.2801Z" fill="#29292B"/>
<path d="M22.8537 70.4535H19.6803V73.6268H22.8537V70.4535Z" fill="#29292B"/>
<path d="M29.2003 70.4535H26.027V73.6268H29.2003V70.4535Z" fill="#29292B"/>
<path d="M51.4137 70.4535H48.2403V73.6268H51.4137V70.4535Z" fill="#29292B"/>
<path d="M60.9337 70.4535H57.7603V73.6268H60.9337V70.4535Z" fill="#29292B"/>
<path d="M67.2803 70.4535H64.107V73.6268H67.2803V70.4535Z" fill="#29292B"/>
<path d="M89.4937 70.4535H86.3203V73.6268H89.4937V70.4535Z" fill="#29292B"/>
<path d="M95.8403 70.4535H92.667V73.6268H95.8403V70.4535Z" fill="#29292B"/>
<path d="M3.81365 73.6268H0.64032V76.8001H3.81365V73.6268Z" fill="#29292B"/>
<path d="M16.507 73.6268H13.3337V76.8001H16.507V73.6268Z" fill="#29292B"/>
<path d="M32.3737 73.6268H29.2003V76.8001H32.3737V73.6268Z" fill="#29292B"/>
<path d="M38.7203 73.6268H35.547V76.8001H38.7203V73.6268Z" fill="#29292B"/>
<path d="M45.067 73.6268H41.8937V76.8001H45.067V73.6268Z" fill="#29292B"/>
<path d="M70.4537 73.6268H67.2803V76.8001H70.4537V73.6268Z" fill="#29292B"/>
<path d="M89.4937 73.6268H86.3203V76.8001H89.4937V73.6268Z" fill="#29292B"/>
<path d="M99.0137 73.6268H95.8403V76.8001H99.0137V73.6268Z" fill="#29292B"/>
<path d="M3.81365 76.8001H0.64032V79.9735H3.81365V76.8001Z" fill="#29292B"/>
<path d="M6.98699 76.8001H3.81365V79.9735H6.98699V76.8001Z" fill="#29292B"/>
<path d="M10.1603 76.8001H6.98699V79.9735H10.1603V76.8001Z" fill="#29292B"/>
<path d="M13.3337 76.8001H10.1603V79.9735H13.3337V76.8001Z" fill="#29292B"/>
<path d="M16.507 76.8001H13.3337V79.9735H16.507V76.8001Z" fill="#29292B"/>
<path d="M19.6803 76.8001H16.507V79.9735H19.6803V76.8001Z" fill="#29292B"/>
<path d="M22.8537 76.8001H19.6803V79.9735H22.8537V76.8001Z" fill="#29292B"/>
<path d="M26.027 76.8001H22.8537V79.9735H26.027V76.8001Z" fill="#29292B"/>
<path d="M29.2003 76.8001H26.027V79.9735H29.2003V76.8001Z" fill="#29292B"/>
<path d="M32.3737 76.8001H29.2003V79.9735H32.3737V76.8001Z" fill="#29292B"/>
<path d="M38.7203 76.8001H35.547V79.9735H38.7203V76.8001Z" fill="#29292B"/>
<path d="M41.8937 76.8001H38.7203V79.9735H41.8937V76.8001Z" fill="#29292B"/>
<path d="M45.067 76.8001H41.8937V79.9735H45.067V76.8001Z" fill="#29292B"/>
<path d="M48.2403 76.8001H45.067V79.9735H48.2403V76.8001Z" fill="#29292B"/>
<path d="M51.4137 76.8001H48.2403V79.9735H51.4137V76.8001Z" fill="#29292B"/>
<path d="M64.107 76.8001H60.9337V79.9735H64.107V76.8001Z" fill="#29292B"/>
<path d="M67.2803 76.8001H64.107V79.9735H67.2803V76.8001Z" fill="#29292B"/>
<path d="M70.4537 76.8001H67.2803V79.9735H70.4537V76.8001Z" fill="#29292B"/>
<path d="M73.627 76.8001H70.4537V79.9735H73.627V76.8001Z" fill="#29292B"/>
<path d="M76.8003 76.8001H73.627V79.9735H76.8003V76.8001Z" fill="#29292B"/>
<path d="M79.9737 76.8001H76.8003V79.9735H79.9737V76.8001Z" fill="#29292B"/>
<path d="M83.147 76.8001H79.9737V79.9735H83.147V76.8001Z" fill="#29292B"/>
<path d="M86.3203 76.8001H83.147V79.9735H86.3203V76.8001Z" fill="#29292B"/>
<path d="M89.4937 76.8001H86.3203V79.9735H89.4937V76.8001Z" fill="#29292B"/>
<path d="M92.667 76.8001H89.4937V79.9735H92.667V76.8001Z" fill="#29292B"/>
<path d="M95.8403 76.8001H92.667V79.9735H95.8403V76.8001Z" fill="#29292B"/>
<path d="M99.0137 76.8001H95.8403V79.9735H99.0137V76.8001Z" fill="#29292B"/>
<path d="M105.36 76.8001H102.187V79.9735H105.36V76.8001Z" fill="#29292B"/>
<path d="M32.3737 79.9735H29.2003V83.1468H32.3737V79.9735Z" fill="#29292B"/>
<path d="M48.2403 79.9735H45.067V83.1468H48.2403V79.9735Z" fill="#29292B"/>
<path d="M51.4137 79.9735H48.2403V83.1468H51.4137V79.9735Z" fill="#29292B"/>
<path d="M57.7603 79.9735H54.587V83.1468H57.7603V79.9735Z" fill="#29292B"/>
<path d="M76.8003 79.9735H73.627V83.1468H76.8003V79.9735Z" fill="#29292B"/>
<path d="M79.9737 79.9735H76.8003V83.1468H79.9737V79.9735Z" fill="#29292B"/>
<path d="M92.667 79.9735H89.4937V83.1468H92.667V79.9735Z" fill="#29292B"/>
<path d="M99.0137 79.9735H95.8403V83.1468H99.0137V79.9735Z" fill="#29292B"/>
<path d="M3.81365 83.1468H0.64032V86.3201H3.81365V83.1468Z" fill="#29292B"/>
<path d="M6.98699 83.1468H3.81365V86.3201H6.98699V83.1468Z" fill="#29292B"/>
<path d="M10.1603 83.1468H6.98699V86.3201H10.1603V83.1468Z" fill="#29292B"/>
<path d="M13.3337 83.1468H10.1603V86.3201H13.3337V83.1468Z" fill="#29292B"/>
<path d="M16.507 83.1468H13.3337V86.3201H16.507V83.1468Z" fill="#29292B"/>
<path d="M19.6803 83.1468H16.507V86.3201H19.6803V83.1468Z" fill="#29292B"/>
<path d="M22.8537 83.1468H19.6803V86.3201H22.8537V83.1468Z" fill="#29292B"/>
<path d="M29.2003 83.1468H26.027V86.3201H29.2003V83.1468Z" fill="#29292B"/>
<path d="M32.3737 83.1468H29.2003V86.3201H32.3737V83.1468Z" fill="#29292B"/>
<path d="M45.067 83.1468H41.8937V86.3201H45.067V83.1468Z" fill="#29292B"/>
<path d="M57.7603 83.1468H54.587V86.3201H57.7603V83.1468Z" fill="#29292B"/>
<path d="M70.4537 83.1468H67.2803V86.3201H70.4537V83.1468Z" fill="#29292B"/>
<path d="M76.8003 83.1468H73.627V86.3201H76.8003V83.1468Z" fill="#29292B"/>
<path d="M79.9737 83.1468H76.8003V86.3201H79.9737V83.1468Z" fill="#29292B"/>
<path d="M86.3203 83.1468H83.147V86.3201H86.3203V83.1468Z" fill="#29292B"/>
<path d="M92.667 83.1468H89.4937V86.3201H92.667V83.1468Z" fill="#29292B"/>
<path d="M99.0137 83.1468H95.8403V86.3201H99.0137V83.1468Z" fill="#29292B"/>
<path d="M3.81365 86.3201H0.64032V89.4935H3.81365V86.3201Z" fill="#29292B"/>
<path d="M22.8537 86.3201H19.6803V89.4935H22.8537V86.3201Z" fill="#29292B"/>
<path d="M29.2003 86.3201H26.027V89.4935H29.2003V86.3201Z" fill="#29292B"/>
<path d="M32.3737 86.3201H29.2003V89.4935H32.3737V86.3201Z" fill="#29292B"/>
<path d="M38.7203 86.3201H35.547V89.4935H38.7203V86.3201Z" fill="#29292B"/>
<path d="M41.8937 86.3201H38.7203V89.4935H41.8937V86.3201Z" fill="#29292B"/>
<path d="M45.067 86.3201H41.8937V89.4935H45.067V86.3201Z" fill="#29292B"/>
<path d="M48.2403 86.3201H45.067V89.4935H48.2403V86.3201Z" fill="#29292B"/>
<path d="M51.4137 86.3201H48.2403V89.4935H51.4137V86.3201Z" fill="#29292B"/>
<path d="M57.7603 86.3201H54.587V89.4935H57.7603V86.3201Z" fill="#29292B"/>
<path d="M64.107 86.3201H60.9337V89.4935H64.107V86.3201Z" fill="#29292B"/>
<path d="M67.2803 86.3201H64.107V89.4935H67.2803V86.3201Z" fill="#29292B"/>
<path d="M70.4537 86.3201H67.2803V89.4935H70.4537V86.3201Z" fill="#29292B"/>
<path d="M73.627 86.3201H70.4537V89.4935H73.627V86.3201Z" fill="#29292B"/>
<path d="M76.8003 86.3201H73.627V89.4935H76.8003V86.3201Z" fill="#29292B"/>
<path d="M79.9737 86.3201H76.8003V89.4935H79.9737V86.3201Z" fill="#29292B"/>
<path d="M92.667 86.3201H89.4937V89.4935H92.667V86.3201Z" fill="#29292B"/>
<path d="M99.0137 86.3201H95.8403V89.4935H99.0137V86.3201Z" fill="#29292B"/>
<path d="M105.36 86.3201H102.187V89.4935H105.36V86.3201Z" fill="#29292B"/>
<path d="M3.81365 89.4935H0.64032V92.6668H3.81365V89.4935Z" fill="#29292B"/>
<path d="M10.1603 89.4935H6.98699V92.6668H10.1603V89.4935Z" fill="#29292B"/>
<path d="M13.3337 89.4935H10.1603V92.6668H13.3337V89.4935Z" fill="#29292B"/>
<path d="M16.507 89.4935H13.3337V92.6668H16.507V89.4935Z" fill="#29292B"/>
<path d="M22.8537 89.4935H19.6803V92.6668H22.8537V89.4935Z" fill="#29292B"/>
<path d="M29.2003 89.4935H26.027V92.6668H29.2003V89.4935Z" fill="#29292B"/>
<path d="M41.8937 89.4935H38.7203V92.6668H41.8937V89.4935Z" fill="#29292B"/>
<path d="M54.587 89.4935H51.4137V92.6668H54.587V89.4935Z" fill="#29292B"/>
<path d="M60.9337 89.4935H57.7603V92.6668H60.9337L60.9337 89.4935Z" fill="#29292B"/>
<path d="M67.2803 89.4935H64.107V92.6668H67.2803V89.4935Z" fill="#29292B"/>
<path d="M79.9737 89.4935H76.8003V92.6668H79.9737V89.4935Z" fill="#29292B"/>
<path d="M83.147 89.4935H79.9737V92.6668H83.147V89.4935Z" fill="#29292B"/>
<path d="M86.3203 89.4935H83.147V92.6668H86.3203V89.4935Z" fill="#29292B"/>
<path d="M89.4937 89.4935H86.3203V92.6668H89.4937V89.4935Z" fill="#29292B"/>
<path d="M92.667 89.4935H89.4937V92.6668H92.667V89.4935Z" fill="#29292B"/>
<path d="M95.8403 89.4935H92.667V92.6668H95.8403V89.4935Z" fill="#29292B"/>
<path d="M3.81365 92.6668H0.64032V95.8401H3.81365V92.6668Z" fill="#29292B"/>
<path d="M10.1603 92.6668H6.98699V95.8401H10.1603V92.6668Z" fill="#29292B"/>
<path d="M13.3337 92.6668H10.1603V95.8401H13.3337V92.6668Z" fill="#29292B"/>
<path d="M16.507 92.6668H13.3337V95.8401H16.507V92.6668Z" fill="#29292B"/>
<path d="M22.8537 92.6668H19.6803V95.8401H22.8537V92.6668Z" fill="#29292B"/>
<path d="M29.2003 92.6668H26.027V95.8401H29.2003V92.6668Z" fill="#29292B"/>
<path d="M35.547 92.6668H32.3737V95.8401H35.547V92.6668Z" fill="#29292B"/>
<path d="M41.8937 92.6668H38.7203V95.8401H41.8937V92.6668Z" fill="#29292B"/>
<path d="M67.2803 92.6668H64.107V95.8401H67.2803V92.6668Z" fill="#29292B"/>
<path d="M86.3203 92.6668H83.147V95.8401H86.3203V92.6668Z" fill="#29292B"/>
<path d="M92.667 92.6668H89.4937V95.8401H92.667V92.6668Z" fill="#29292B"/>
<path d="M3.81365 95.8401H0.64032V99.0135H3.81365V95.8401Z" fill="#29292B"/>
<path d="M10.1603 95.8401H6.98699V99.0135H10.1603V95.8401Z" fill="#29292B"/>
<path d="M13.3337 95.8401H10.1603V99.0135H13.3337V95.8401Z" fill="#29292B"/>
<path d="M16.507 95.8401H13.3337V99.0135H16.507V95.8401Z" fill="#29292B"/>
<path d="M22.8537 95.8401H19.6803V99.0135H22.8537V95.8401Z" fill="#29292B"/>
<path d="M29.2003 95.8401H26.027V99.0135H29.2003V95.8401Z" fill="#29292B"/>
<path d="M32.3737 95.8401H29.2003V99.0135H32.3737V95.8401Z" fill="#29292B"/>
<path d="M35.547 95.8401H32.3737V99.0135H35.547V95.8401Z" fill="#29292B"/>
<path d="M38.7203 95.8401H35.547V99.0135H38.7203V95.8401Z" fill="#29292B"/>
<path d="M45.067 95.8401H41.8937V99.0135H45.067V95.8401Z" fill="#29292B"/>
<path d="M48.2403 95.8401H45.067V99.0135H48.2403V95.8401Z" fill="#29292B"/>
<path d="M51.4137 95.8401H48.2403V99.0135H51.4137V95.8401Z" fill="#29292B"/>
<path d="M57.7603 95.8401H54.587V99.0135H57.7603V95.8401Z" fill="#29292B"/>
<path d="M64.107 95.8401H60.9337V99.0135H64.107V95.8401Z" fill="#29292B"/>
<path d="M70.4537 95.8401H67.2803V99.0135H70.4537V95.8401Z" fill="#29292B"/>
<path d="M73.627 95.8401H70.4537V99.0135H73.627V95.8401Z" fill="#29292B"/>
<path d="M76.8003 95.8401H73.627V99.0135H76.8003V95.8401Z" fill="#29292B"/>
<path d="M83.147 95.8401H79.9737V99.0135H83.147V95.8401Z" fill="#29292B"/>
<path d="M89.4937 95.8401H86.3203V99.0135H89.4937V95.8401Z" fill="#29292B"/>
<path d="M95.8403 95.8401H92.667V99.0135H95.8403V95.8401Z" fill="#29292B"/>
<path d="M99.0137 95.8401H95.8403V99.0135H99.0137V95.8401Z" fill="#29292B"/>
<path d="M102.187 95.8401H99.0137V99.0135H102.187V95.8401Z" fill="#29292B"/>
<path d="M3.81365 99.0135H0.64032V102.187H3.81365V99.0135Z" fill="#29292B"/>
<path d="M22.8537 99.0135H19.6803V102.187H22.8537V99.0135Z" fill="#29292B"/>
<path d="M45.067 99.0135H41.8937V102.187H45.067V99.0135Z" fill="#29292B"/>
<path d="M51.4137 99.0135H48.2403V102.187H51.4137V99.0135Z" fill="#29292B"/>
<path d="M70.4537 99.0135H67.2803V102.187H70.4537V99.0135Z" fill="#29292B"/>
<path d="M79.9737 99.0135H76.8003V102.187H79.9737V99.0135Z" fill="#29292B"/>
<path d="M105.36 99.0135H102.187V102.187H105.36V99.0135Z" fill="#29292B"/>
<path d="M3.81365 102.187H0.64032V105.36H3.81365V102.187Z" fill="#29292B"/>
<path d="M6.98699 102.187H3.81365V105.36H6.98699V102.187Z" fill="#29292B"/>
<path d="M10.1603 102.187H6.98699V105.36H10.1603V102.187Z" fill="#29292B"/>
<path d="M13.3337 102.187H10.1603V105.36H13.3337V102.187Z" fill="#29292B"/>
<path d="M16.507 102.187H13.3337V105.36H16.507V102.187Z" fill="#29292B"/>
<path d="M19.6803 102.187H16.507V105.36H19.6803V102.187Z" fill="#29292B"/>
<path d="M22.8537 102.187H19.6803V105.36H22.8537V102.187Z" fill="#29292B"/>
<path d="M32.3737 102.187H29.2003V105.36H32.3737V102.187Z" fill="#29292B"/>
<path d="M45.067 102.187H41.8937V105.36H45.067V102.187Z" fill="#29292B"/>
<path d="M51.4137 102.187H48.2403V105.36H51.4137V102.187Z" fill="#29292B"/>
<path d="M57.7603 102.187H54.587V105.36H57.7603V102.187Z" fill="#29292B"/>
<path d="M70.4537 102.187H67.2803V105.36H70.4537V102.187Z" fill="#29292B"/>
<path d="M76.8003 102.187H73.627V105.36H76.8003V102.187Z" fill="#29292B"/>
<path d="M79.9737 102.187H76.8003V105.36H79.9737V102.187Z" fill="#29292B"/>
<path d="M83.147 102.187H79.9737V105.36H83.147V102.187Z" fill="#29292B"/>
<path d="M95.8403 102.187H92.667V105.36H95.8403V102.187Z" fill="#29292B"/>
</svg>
