<svg width="23" height="22" viewBox="0 0 23 22" fill="none" xmlns="http://www.w3.org/2000/svg">
<path fill-rule="evenodd" clip-rule="evenodd" d="M11.5 0C5.425 0 0.5 4.925 0.5 11C0.5 17.075 5.425 22 11.5 22C17.575 22 22.5 17.075 22.5 11C22.5 4.925 17.575 0 11.5 0ZM16.268 9.14C16.3558 9.03964 16.4226 8.92274 16.4646 8.79617C16.5065 8.6696 16.5227 8.53591 16.5123 8.40298C16.5018 8.27005 16.4648 8.14056 16.4036 8.02213C16.3423 7.90369 16.258 7.79871 16.1555 7.71334C16.0531 7.62798 15.9346 7.56396 15.8071 7.52506C15.6796 7.48616 15.5455 7.47316 15.4129 7.48683C15.2802 7.50049 15.1517 7.54055 15.0347 7.60463C14.9178 7.66872 14.8149 7.75554 14.732 7.86L10.432 13.019L8.207 10.793C8.0184 10.6108 7.7658 10.51 7.5036 10.5123C7.2414 10.5146 6.99059 10.6198 6.80518 10.8052C6.61977 10.9906 6.5146 11.2414 6.51233 11.5036C6.51005 11.7658 6.61084 12.0184 6.793 12.207L9.793 15.207C9.89126 15.3052 10.0089 15.3818 10.1384 15.4321C10.2679 15.4823 10.4065 15.505 10.5453 15.4986C10.684 15.4923 10.82 15.4572 10.9444 15.3954C11.0688 15.3337 11.1791 15.2467 11.268 15.14L16.268 9.14Z" fill="white"/>
</svg>
